<svg width="368" height="298" viewBox="0 0 368 298" fill="none" xmlns="http://www.w3.org/2000/svg">
<path d="M185.601 294.988C263.51 293.97 325.482 229.031 325.482 151.123V15.0037C325.482 13.056 323.889 11.5067 321.985 11.5067H234.471C232.523 11.5067 230.974 13.1003 230.974 15.0037V24.7423H139.962C138.015 24.7423 136.465 26.3359 136.465 28.2393V153.203H45.5422C43.5945 153.203 41.9566 154.797 42.0009 156.789C42.4435 175.381 46.516 193.087 53.4659 209.244C75.422 260.239 126.417 295.741 185.601 294.988Z" fill="#45E0A8" stroke="white" stroke-width="2" stroke-linecap="round" stroke-linejoin="round"/>
<path d="M234.116 49.4872L71.5262 2.56491C62.4958 -0.0468001 53.5098 6.72595 53.5098 16.1104V23.3701L243.752 69.4956V62.8556C243.752 56.6141 240.137 51.2136 234.116 49.4872Z" fill="white"/>
<path d="M53.5107 212.332L61.359 226.459L76.5322 247.911L99.5536 269.363L65.5447 276.164H60.3125L56.1268 274.071L54.034 270.409L53.5107 266.223V212.332Z" fill="white"/>
<path d="M53.5107 22.9286L72.8697 25.5446L118.913 34.9625L135.655 39.6714V68.4482V152.163H53.5107V116.061V72.1107V22.9286Z" fill="white"/>
<path d="M234.161 49.4872L71.5711 2.56491C62.5408 -0.0468001 53.5547 6.72595 53.5547 16.1104V267.145C53.5547 273.165 59.088 277.68 64.9754 276.441L236.773 240.364C241.155 239.478 242.87 236.162 242.914 231.691" stroke="white" stroke-width="1.2" stroke-miterlimit="10" stroke-linecap="round" stroke-linejoin="round"/>
<path d="M154.349 227.925L110.038 234.344V168.343L141.91 167.856L154.349 179.41V227.925Z" fill="white" stroke="#45E0A8" stroke-width="1.2" stroke-miterlimit="10" stroke-linecap="round" stroke-linejoin="round"/>
<path d="M141.91 167.855V179.896L154.349 179.409L141.91 167.855Z" fill="white" stroke="#45E0A8" stroke-width="1.2" stroke-miterlimit="10" stroke-linecap="round" stroke-linejoin="round"/>
<path d="M131.243 180.117L136.024 179.896" stroke="#45E0A8" stroke-width="1.2" stroke-miterlimit="10" stroke-linecap="round" stroke-linejoin="round"/>
<path d="M117.387 180.692L127.922 180.25" stroke="black" stroke-width="1.2" stroke-miterlimit="10" stroke-linecap="round" stroke-linejoin="round"/>
<path d="M141.556 189.236L148.019 188.882" stroke="#45E0A8" stroke-width="1.2" stroke-miterlimit="10" stroke-linecap="round" stroke-linejoin="round"/>
<path d="M125.886 190.21L138.103 189.457" stroke="black" stroke-width="1.2" stroke-miterlimit="10" stroke-linecap="round" stroke-linejoin="round"/>
<path d="M117.387 190.741L122.3 190.431" stroke="#45E0A8" stroke-width="1.2" stroke-miterlimit="10" stroke-linecap="round" stroke-linejoin="round"/>
<path d="M134.296 199.417L148.018 198.311" stroke="black" stroke-width="1.2" stroke-miterlimit="10" stroke-linecap="round" stroke-linejoin="round"/>
<path d="M117.387 200.79L130.711 199.683" stroke="#45E0A8" stroke-width="1.2" stroke-miterlimit="10" stroke-linecap="round" stroke-linejoin="round"/>
<path d="M137.483 208.802L148.019 207.739" stroke="#45E0A8" stroke-width="1.2" stroke-miterlimit="10" stroke-linecap="round" stroke-linejoin="round"/>
<path d="M117.387 210.794L133.632 209.2" stroke="black" stroke-width="1.2" stroke-miterlimit="10" stroke-linecap="round" stroke-linejoin="round"/>
<path d="M127.303 219.647L148.019 217.168" stroke="#45E0A8" stroke-width="1.2" stroke-miterlimit="10" stroke-linecap="round" stroke-linejoin="round"/>
<path d="M117.387 220.842L123.407 220.134" stroke="#45E0A8" stroke-width="1.2" stroke-miterlimit="10" stroke-linecap="round" stroke-linejoin="round"/>
<path d="M104.328 174.894L68.251 175.912V127.44L94.014 128.99L104.328 138.418V174.894Z" fill="white" stroke="#45E0A8" stroke-width="1.2" stroke-miterlimit="10" stroke-linecap="round" stroke-linejoin="round"/>
<path d="M94.0137 128.989V137.976L104.328 138.418L94.0137 128.989Z" fill="white" stroke="#45E0A8" stroke-width="1.2" stroke-miterlimit="10" stroke-linecap="round" stroke-linejoin="round"/>
<path d="M84.7627 137.4L89.2336 137.577" stroke="#45E0A8" stroke-width="1.2" stroke-miterlimit="10" stroke-linecap="round" stroke-linejoin="round"/>
<path d="M74.1377 136.957L81.7072 137.267" stroke="black" stroke-width="1.2" stroke-miterlimit="10" stroke-linecap="round" stroke-linejoin="round"/>
<path d="M89.2334 144.793L99.0605 145.103" stroke="black" stroke-width="1.2" stroke-miterlimit="10" stroke-linecap="round" stroke-linejoin="round"/>
<path d="M74.1377 144.35L85.16 144.66" stroke="#45E0A8" stroke-width="1.2" stroke-miterlimit="10" stroke-linecap="round" stroke-linejoin="round"/>
<path d="M91.2246 152.052L99.0597 152.141" stroke="#45E0A8" stroke-width="1.2" stroke-miterlimit="10" stroke-linecap="round" stroke-linejoin="round"/>
<path d="M80.7344 151.875L88.7908 152.008" stroke="black" stroke-width="1.2" stroke-miterlimit="10" stroke-linecap="round" stroke-linejoin="round"/>
<path d="M74.1377 151.742L77.9003 151.831" stroke="#45E0A8" stroke-width="1.2" stroke-miterlimit="10" stroke-linecap="round" stroke-linejoin="round"/>
<path d="M88.0381 159.179L99.0604 159.223" stroke="#45E0A8" stroke-width="1.2" stroke-miterlimit="10" stroke-linecap="round" stroke-linejoin="round"/>
<path d="M74.1377 159.179H84.4075" stroke="black" stroke-width="1.2" stroke-miterlimit="10" stroke-linecap="round" stroke-linejoin="round"/>
<path d="M93.04 166.35L99.0603 166.306" stroke="black" stroke-width="1.2" stroke-miterlimit="10" stroke-linecap="round" stroke-linejoin="round"/>
<path d="M74.1377 166.572L90.0293 166.395" stroke="#45E0A8" stroke-width="1.2" stroke-miterlimit="10" stroke-linecap="round" stroke-linejoin="round"/>
<path d="M205.387 226.951L176.747 231.555V183.658L197.242 182.552L205.387 190.874V226.951Z" fill="white" stroke="#45E0A8" stroke-width="1.2" stroke-miterlimit="10" stroke-linecap="round" stroke-linejoin="round"/>
<path d="M197.242 182.552V191.449L205.387 190.874L197.242 182.552Z" fill="white" stroke="#45E0A8" stroke-width="1.2" stroke-miterlimit="10" stroke-linecap="round" stroke-linejoin="round"/>
<path d="M181.439 192.467L193.391 191.582" stroke="#45E0A8" stroke-width="1.2" stroke-miterlimit="10" stroke-linecap="round" stroke-linejoin="round"/>
<path d="M192.771 198.753L201.226 198.001" stroke="#45E0A8" stroke-width="1.2" stroke-miterlimit="10" stroke-linecap="round" stroke-linejoin="round"/>
<path d="M181.439 199.771L189.894 199.019" stroke="#45E0A8" stroke-width="1.2" stroke-miterlimit="10" stroke-linecap="round" stroke-linejoin="round"/>
<path d="M191.312 206.057L201.227 204.995" stroke="#45E0A8" stroke-width="1.2" stroke-miterlimit="10" stroke-linecap="round" stroke-linejoin="round"/>
<path d="M181.439 207.12L187.415 206.456" stroke="black" stroke-width="1.2" stroke-miterlimit="10" stroke-linecap="round" stroke-linejoin="round"/>
<path d="M199.234 212.21L202.333 211.856" stroke="black" stroke-width="1.2" stroke-miterlimit="10" stroke-linecap="round" stroke-linejoin="round"/>
<path d="M181.439 214.424L196.003 212.609" stroke="#45E0A8" stroke-width="1.2" stroke-miterlimit="10" stroke-linecap="round" stroke-linejoin="round"/>
<path d="M187.416 220.931L201.227 218.983" stroke="#45E0A8" stroke-width="1.2" stroke-miterlimit="10" stroke-linecap="round" stroke-linejoin="round"/>
<path d="M181.439 221.772L184.627 221.285" stroke="black" stroke-width="1.2" stroke-miterlimit="10" stroke-linecap="round" stroke-linejoin="round"/>
<path d="M233.542 171.485L208 172.238V126.378L226.238 127.883L233.542 136.869V171.485Z" fill="white" stroke="#45E0A8" stroke-width="1.2" stroke-miterlimit="10" stroke-linecap="round" stroke-linejoin="round"/>
<path d="M226.237 127.883V136.426L233.541 136.869L226.237 127.883Z" fill="white" stroke="#45E0A8" stroke-width="1.2" stroke-miterlimit="10" stroke-linecap="round" stroke-linejoin="round"/>
<path d="M212.161 135.408L218.491 135.807" stroke="#45E0A8" stroke-width="1.2" stroke-miterlimit="10" stroke-linecap="round" stroke-linejoin="round"/>
<path d="M223.139 142.889L229.823 143.199" stroke="#45E0A8" stroke-width="1.2" stroke-miterlimit="10" stroke-linecap="round" stroke-linejoin="round"/>
<path d="M218.49 142.712L220.748 142.801" stroke="black" stroke-width="1.2" stroke-miterlimit="10" stroke-linecap="round" stroke-linejoin="round"/>
<path d="M212.16 142.402L215.613 142.579" stroke="#45E0A8" stroke-width="1.2" stroke-miterlimit="10" stroke-linecap="round" stroke-linejoin="round"/>
<path d="M227.432 149.839L229.822 149.883" stroke="black" stroke-width="1.2" stroke-miterlimit="10" stroke-linecap="round" stroke-linejoin="round"/>
<path d="M219.243 149.618L224.511 149.751" stroke="#45E0A8" stroke-width="1.2" stroke-miterlimit="10" stroke-linecap="round" stroke-linejoin="round"/>
<path d="M212.16 149.441L216.011 149.529" stroke="black" stroke-width="1.2" stroke-miterlimit="10" stroke-linecap="round" stroke-linejoin="round"/>
<path d="M221.19 156.523L229.822 156.612" stroke="black" stroke-width="1.2" stroke-miterlimit="10" stroke-linecap="round" stroke-linejoin="round"/>
<path d="M212.16 156.435L217.871 156.479" stroke="#45E0A8" stroke-width="1.2" stroke-miterlimit="10" stroke-linecap="round" stroke-linejoin="round"/>
<path d="M219.642 163.384L229.823 163.296" stroke="#45E0A8" stroke-width="1.2" stroke-miterlimit="10" stroke-linecap="round" stroke-linejoin="round"/>
<path d="M212.16 163.429H216.41" stroke="black" stroke-width="1.2" stroke-miterlimit="10" stroke-linecap="round" stroke-linejoin="round"/>
<path d="M199.81 152.805L150.364 152.893V71.7531L186.131 77.6405L199.81 94.1076V152.805Z" fill="white" stroke="#45E0A8" stroke-width="1.2" stroke-miterlimit="10" stroke-linecap="round" stroke-linejoin="round"/>
<path d="M186.132 77.6404V92.2926L199.81 94.1075L186.132 77.6404Z" fill="white" stroke="#45E0A8" stroke-width="1.2" stroke-miterlimit="10" stroke-linecap="round" stroke-linejoin="round"/>
<path d="M158.73 88.353L173.692 90.2122" stroke="black" stroke-width="1.2" stroke-miterlimit="10" stroke-linecap="round" stroke-linejoin="round"/>
<path d="M182.502 102.386L192.86 103.448" stroke="black" stroke-width="1.2" stroke-miterlimit="10" stroke-linecap="round" stroke-linejoin="round"/>
<path d="M158.73 99.9509L177.544 101.899" stroke="#45E0A8" stroke-width="1.2" stroke-miterlimit="10" stroke-linecap="round" stroke-linejoin="round"/>
<path d="M175.774 112.921L192.861 114.205" stroke="#45E0A8" stroke-width="1.2" stroke-miterlimit="10" stroke-linecap="round" stroke-linejoin="round"/>
<path d="M158.73 111.593L172.32 112.655" stroke="black" stroke-width="1.2" stroke-miterlimit="10" stroke-linecap="round" stroke-linejoin="round"/>
<path d="M183.742 124.519L192.861 125.006" stroke="black" stroke-width="1.2" stroke-miterlimit="10" stroke-linecap="round" stroke-linejoin="round"/>
<path d="M158.73 123.191L180.111 124.342" stroke="#45E0A8" stroke-width="1.2" stroke-miterlimit="10" stroke-linecap="round" stroke-linejoin="round"/>
<path d="M167.496 135.054L192.861 135.807" stroke="#45E0A8" stroke-width="1.2" stroke-miterlimit="10" stroke-linecap="round" stroke-linejoin="round"/>
<path d="M158.73 134.833L164.529 134.965" stroke="black" stroke-width="1.2" stroke-miterlimit="10" stroke-linecap="round" stroke-linejoin="round"/>
<path d="M192.861 147.272H157.138" stroke="#45E0A8" stroke-width="1.2" stroke-miterlimit="10" stroke-linecap="round" stroke-linejoin="round"/>
<path d="M76.2353 20.9911C78.353 19.6286 78.6113 16.2572 76.8122 13.461C75.0132 10.6648 71.8379 9.50256 69.7202 10.8651C67.6025 12.2277 67.3442 15.599 69.1433 18.3952C70.9424 21.1914 74.1176 22.3537 76.2353 20.9911Z" fill="black"/>
<path d="M92.581 25.5667C94.6987 24.2041 94.957 20.8328 93.1579 18.0366C91.3589 15.2403 88.1837 14.0781 86.0659 15.4407C83.9482 16.8032 83.6899 20.1746 85.489 22.9708C87.2881 25.767 90.4633 26.9292 92.581 25.5667Z" fill="#45E0A8"/>
<path d="M108.963 30.1179C111.081 28.7554 111.339 25.384 109.54 22.5878C107.741 19.7916 104.565 18.6294 102.448 19.9919C100.33 21.3545 100.072 24.7258 101.871 27.522C103.67 30.3182 106.845 31.4805 108.963 30.1179Z" fill="#45E0A8"/>
<path d="M135.655 19.7893L234.116 49.4873C240.137 51.2136 244.588 56.7469 244.588 63.0327V69.6727" stroke="#45E0A8" stroke-width="1.2" stroke-miterlimit="10" stroke-linecap="round" stroke-linejoin="round"/>
<path d="M53.5547 209.466V153.247" stroke="white" stroke-width="1.2" stroke-miterlimit="10" stroke-linecap="round" stroke-linejoin="round"/>
<path d="M53.5547 23.3701L136.465 43.5112" stroke="#45E0A8" stroke-width="1.2" stroke-miterlimit="10" stroke-linecap="round" stroke-linejoin="round"/>
<path d="M136.466 43.5112L244.299 69.6284" stroke="#45E0A8" stroke-width="1.2" stroke-miterlimit="10" stroke-linecap="round" stroke-linejoin="round"/>
<path d="M243.103 67.1937V231.112C243.103 235.583 239.96 239.478 235.577 240.408L101.539 268.783" stroke="white" stroke-width="1.2" stroke-miterlimit="10" stroke-linecap="round" stroke-linejoin="round"/>
<path d="M297.507 236.734L278.295 234.343L237.747 231.554L234.117 237.486C234.294 243.374 234.87 250.146 236.242 257.583C237.968 267.056 240.536 275.157 243.103 281.752C264.794 271.571 283.43 255.945 297.507 236.734Z" fill="white"/>
<path d="M253.062 261.302L256.205 264.267C257.622 265.595 258.552 267.322 258.861 269.225L259.393 272.501" stroke="#45E0A8" stroke-width="1.2" stroke-miterlimit="10" stroke-linecap="round" stroke-linejoin="round"/>
<path d="M169.708 64.936C167.45 65.0246 157.667 67.2822 153.108 69.8496C152.842 69.9824 152.709 70.2923 152.754 70.6021C153.772 76.8879 174.223 69.0971 175.905 70.6021C178.03 72.2843 175.108 86.7151 180.863 85.7855C182.368 84.8559 183.164 71.1776 186.44 71.1776C189.45 71.4875 196.223 75.6042 197.728 76.7994H202.376C202.819 76.8437 207.555 72.2843 207.555 72.2843C207.068 69.0528 206.581 65.8214 206.139 62.5899C204.058 61.2177 202.288 58.7388 200.207 57.3665C194.762 54.3564 175.462 47.1852 160.5 47.805C159.925 47.8492 159.349 48.0263 158.907 48.3804C155.985 50.7266 166.963 53.6039 169.353 53.7809" fill="#45E0A8"/>
<path d="M152.754 70.6022C153.772 76.888 174.223 69.0971 175.905 70.6022C178.03 72.2843 175.108 86.7151 180.863 85.7856C181.394 85.4757 182.279 81.4917 182.279 81.4917C177.454 82.5098 181.969 68.6545 176.082 68.3004C169.752 68.5217 154.745 72.6827 153.108 69.8054C152.842 70.0267 152.709 70.3366 152.754 70.6022Z" fill="white"/>
<path d="M162.094 66.5297C153.33 68.2118 149.479 68.3889 149.124 66.9281C148.549 64.6705 155.366 61.7047 169.354 58.1634L170.638 57.8978V66.4854" fill="#45E0A8"/>
<path d="M160.324 60.6423C153.773 60.9521 150.896 60.2881 150.896 58.6503C150.896 57.2338 157.358 54.7106 171.479 53.5597L169.797 61.1292" fill="#45E0A8"/>
<path d="M176.48 51.5677C175.595 52.8514 174.444 54.7991 173.692 57.3666C172.718 60.5537 172.762 63.2983 172.895 65.0246" stroke="black" stroke-width="1.2" stroke-miterlimit="10" stroke-linecap="round" stroke-linejoin="round"/>
<path d="M169.309 53.781C166.875 53.6039 155.941 50.7266 158.862 48.3805C159.305 48.0264 159.881 47.8493 160.456 47.805C175.816 46.7869 199.764 57.1452 207.423 60.0668" stroke="black" stroke-width="1.2" stroke-miterlimit="10" stroke-linecap="round" stroke-linejoin="round"/>
<path d="M202.332 76.8438H197.684C196.179 75.6486 189.406 71.5318 186.396 71.2219C183.121 71.2219 182.324 84.9002 180.819 85.8298C175.064 86.7594 177.986 72.3286 175.861 70.6465C174.179 69.1414 153.728 76.9323 152.71 70.6465C152.665 70.3366 152.798 70.0267 153.064 69.8939C157.623 67.2822 167.406 65.0689 169.664 64.9804" stroke="black" stroke-width="1.2" stroke-miterlimit="10" stroke-linecap="round" stroke-linejoin="round"/>
<path d="M169.309 58.1634C155.321 61.6605 148.549 64.6706 149.08 66.9281C149.434 68.3447 153.329 68.2119 162.05 66.5298" stroke="black" stroke-width="1.2" stroke-miterlimit="10" stroke-linecap="round" stroke-linejoin="round"/>
<path d="M171.479 53.6039C157.358 54.7548 150.896 57.278 150.896 58.6945C150.896 60.3323 153.773 60.9963 160.324 60.6865" stroke="black" stroke-width="1.2" stroke-miterlimit="10" stroke-linecap="round" stroke-linejoin="round"/>
<path d="M234.115 237.486C230.22 203.844 230.175 161.437 250.316 134.567C246.775 125.669 239.338 110.309 224.376 95.834C215.125 86.8922 204.634 80.1637 196.71 76.1355C196.71 76.1355 205.165 73.9221 200.163 57.4108C210.344 61.7932 227.209 68.4774 243.765 83.3066C261.472 99.1982 270.059 116.639 273.955 126.156L299.895 137.179C299.585 153.07 299.231 168.962 298.921 184.854C297.77 189.457 296.752 194.371 295.955 199.639C294.539 209.111 292.192 225.357 297.549 236.822C294.937 239.434 284.756 249.04 268.598 250.146C249.166 251.386 236.24 239.522 234.115 237.486Z" fill="black"/>
<path d="M298.833 184.809C299.143 168.918 299.497 153.026 299.807 137.134L273.867 126.112C269.972 116.595 261.384 99.1539 243.678 83.2623C227.166 68.4331 210.434 60.5537 200.075 57.3665C203.484 64.2278 203.395 76.7994 197.641 76.7994C205.564 80.8276 215.037 86.8479 224.333 95.7897C239.295 110.265 246.732 125.625 250.273 134.523C235.223 154.62 231.858 185.031 232.744 213.14" stroke="black" stroke-width="1.2" stroke-miterlimit="10" stroke-linecap="round" stroke-linejoin="round"/>
<path d="M203.173 81.1377C208.855 82.1867 212.811 69.7694 209.5 60.2941" stroke="#45E0A8" stroke-width="1.2" stroke-miterlimit="10" stroke-linecap="round" stroke-linejoin="round"/>
<path d="M272.848 121.154L273.866 128.547C270.148 135.806 261.383 140.941 263.906 147.537C265.455 151.477 281.524 151.521 299.806 137.134C295.911 132.354 295.778 117.392 296.044 113.85C295.468 110.53 294.893 107.21 294.317 103.89" fill="#45E0A8"/>
<path d="M263.906 147.537C264.438 149.086 267.226 150.06 271.565 149.795C271.21 136.559 279.444 131.955 277.231 119.295C276.921 119.03 277.275 118.41 276.921 118.144L272.848 121.154L273.866 127.706C273.601 133.239 261.383 140.012 263.906 147.537Z" fill="white"/>
<path d="M272.848 121.154L273.866 127.706C273.6 133.283 261.383 140.056 263.95 147.581C265.322 151.61 281.568 151.565 299.85 137.179C295.955 132.398 295.822 117.436 296.087 113.895C295.512 110.575 294.936 107.255 294.361 103.935" stroke="black" stroke-width="1.2" stroke-miterlimit="10" stroke-linecap="round" stroke-linejoin="round"/>
<path d="M262.312 79.7212C253.193 98.4016 255.628 117.171 263.242 121.154C269.395 124.342 278.469 118.72 280.86 117.215C284.888 112.877 288.916 108.583 292.989 104.245L282.365 76.8439L262.312 79.7212Z" fill="#45E0A8"/>
<path d="M262.312 79.7211C253.193 98.4015 255.628 117.17 263.242 121.154C264.215 121.641 265.234 121.951 266.296 122.04C255.982 115.931 263.197 84.7675 266.296 79.1456L262.312 79.7211Z" fill="white"/>
<path d="M259.789 109.601C260.276 109.778 261.693 110.309 263.419 109.822C265.499 109.291 266.562 107.742 266.827 107.343" stroke="black" stroke-width="1.2" stroke-miterlimit="10" stroke-linecap="round" stroke-linejoin="round"/>
<path d="M292.989 104.245L282.365 76.8439L262.312 79.7212C253.193 98.4016 255.628 117.171 263.242 121.154C269.395 124.342 278.469 118.72 280.86 117.215" stroke="black" stroke-width="1.2" stroke-miterlimit="10" stroke-linecap="round" stroke-linejoin="round"/>
<path d="M259.081 96.7638C254.344 97.2064 251.423 98.3573 251.423 99.464C251.423 100.969 254.743 101.943 259.479 101.943" fill="white"/>
<path d="M259.081 96.7638C254.344 97.2064 251.423 98.3573 251.423 99.464C251.423 100.969 254.743 101.943 259.479 101.943" stroke="black" stroke-width="1.2" stroke-miterlimit="10" stroke-linecap="round" stroke-linejoin="round"/>
<path d="M279.665 99.2426C282.542 95.5685 285.287 94.1077 287.234 95.9669C289.403 98.0474 287.279 100.748 285.951 102.917C285.287 104.023 285.331 105.44 286.084 106.502C287.146 108.052 288.739 109.911 290.997 111.46C292.856 112.7 294.627 113.452 296.043 113.85C299.098 112.168 305.516 107.786 310.519 99.641C316.362 90.0795 317.114 80.4737 315.299 77.2865C315.078 78.1275 312.732 82.7312 309.235 82.864C310.873 81.4033 317.69 68.2119 313.971 64.6706C311.227 68.7874 308.128 70.1153 306.712 69.23C305.738 68.6103 306.313 66.7511 309.943 63.8738C307.11 62.5015 274.707 52.94 262.312 79.6769C262.534 81.1819 263.109 83.1739 264.747 84.3691C268.288 86.9808 273.069 83.351 276.699 84.9446C281.48 87.0693 274.486 99.2426 279.665 99.2426Z" fill="black" stroke="black" stroke-width="1.2" stroke-miterlimit="10" stroke-linecap="round" stroke-linejoin="round"/>
<path d="M276.7 141.738C277.851 142.092 279.091 142.535 280.33 143.066C281.658 143.597 282.853 144.129 283.96 144.704" stroke="black" stroke-width="1.2" stroke-miterlimit="10" stroke-linecap="round" stroke-linejoin="round"/>
<path d="M272.848 121.154L273.866 128.547C271.298 134.744 260.497 141.694 263.906 147.537C266.031 151.211 281.524 151.521 299.806 137.134C295.91 132.354 295.778 117.392 296.043 113.85C295.468 110.53 294.892 107.21 294.317 103.89" stroke="black" stroke-width="1.2" stroke-miterlimit="10" stroke-linecap="round" stroke-linejoin="round"/>
<path d="M164.706 165.022C160.9 162.278 158.775 159.002 159.572 156.789C159.704 156.435 159.926 156.081 160.28 155.682L161.077 155.107L164.574 152.539C154.348 147.537 149.346 144.616 149.7 143.775C150.054 142.889 156.783 144.527 169.841 148.688C173.029 150.282 176.171 151.92 179.359 153.513" fill="#45E0A8"/>
<path d="M161.475 162.145C158.155 168.608 177.898 175.956 183.697 183.039L185.866 184.19L197.685 176.841L195.383 170.29C192.594 166.66 190.16 162.322 186.884 158.161C182.059 152.052 183.741 142.491 181.395 141.605C176.659 139.835 177.278 151.787 177.854 154.266" fill="#45E0A8"/>
<path d="M164.706 158.958C160.413 156.567 156.384 151.211 160.855 150.769L168.425 150.237L168.203 155.107" fill="#45E0A8"/>
<path d="M177.765 154.708C177.455 152.628 178.384 143.952 182.545 143.421C182.501 143.243 182.413 141.65 181.395 141.517C177.189 140.853 177.145 148.555 177.588 152.495L169.708 148.29C166.61 146.608 155.056 142.801 152.046 141.783C151.515 141.606 150.984 141.561 150.452 141.738C149.346 142.093 149.213 143.509 150.187 144.527C150.674 145.014 152.223 146.121 152.223 146.121C153.861 142.402 171.567 151.964 177.765 154.708Z" fill="white"/>
<path d="M177.366 152.539C177.366 152.539 155.056 140.764 150.408 141.738C149.257 141.96 149.168 143.509 150.142 144.527C153.108 147.493 162.935 151.743 165.148 152.938" stroke="black" stroke-width="1.2" stroke-miterlimit="10" stroke-linecap="round" stroke-linejoin="round"/>
<path d="M170.106 154.177C169.53 155.726 168.911 157.94 168.689 160.596C168.468 163.517 168.822 165.996 169.221 167.678" stroke="black" stroke-width="1.2" stroke-miterlimit="10" stroke-linecap="round" stroke-linejoin="round"/>
<path d="M164.705 158.958C160.412 156.568 156.383 151.211 160.854 150.769" stroke="black" stroke-width="1.2" stroke-miterlimit="10" stroke-linecap="round" stroke-linejoin="round"/>
<path d="M164.705 165.022C160.899 162.278 158.774 159.002 159.571 156.789C159.703 156.435 159.925 156.081 160.279 155.682" stroke="black" stroke-width="1.2" stroke-miterlimit="10" stroke-linecap="round" stroke-linejoin="round"/>
<path d="M185.821 184.145L183.652 182.995C177.853 175.912 158.11 168.564 161.43 162.101" stroke="black" stroke-width="1.2" stroke-miterlimit="10" stroke-linecap="round" stroke-linejoin="round"/>
<path d="M279.002 158.958C265.589 172.592 255.629 192.025 233.584 191.272C218.268 190.741 199.278 173.211 193.656 167.988C196.843 171.883 185.334 185.518 181.97 181.224C184.272 185.252 189.539 192.467 194.674 198.045C203.04 207.164 212.159 213.317 217.471 215.574C243.854 226.774 278.205 213.715 298.877 184.809C312.113 166.35 306.978 146.165 299.851 137.134" fill="black"/>
<path d="M279.002 158.958C265.589 172.592 255.629 192.025 233.584 191.272C218.268 190.741 199.278 173.211 193.656 167.988C196.843 171.883 185.334 185.518 181.97 181.224C184.272 185.252 189.539 192.467 194.674 198.045C203.04 207.164 212.159 213.317 217.471 215.574C243.854 226.774 278.205 213.715 298.877 184.809C312.113 166.35 306.978 146.165 299.851 137.134" stroke="black" stroke-width="1.2" stroke-miterlimit="10" stroke-linecap="round" stroke-linejoin="round"/>
<path d="M217.072 216.77C246.775 227.836 282.498 211.812 301.798 182.507" stroke="#45E0A8" stroke-width="1.2" stroke-miterlimit="10" stroke-linecap="round" stroke-linejoin="round"/>
<path d="M276.7 161.437C263.287 175.071 253.903 192.423 231.194 189.9" stroke="#45E0A8" stroke-width="1.2" stroke-miterlimit="10" stroke-linecap="round" stroke-linejoin="round"/>
<path d="M187.148 189.28C194.32 191.405 203.704 179.896 202.199 174.318" stroke="#45E0A8" stroke-width="1.2" stroke-miterlimit="10" stroke-linecap="round" stroke-linejoin="round"/>
<path d="M195.339 170.246C192.55 166.616 190.115 162.278 186.839 158.117C182.014 152.008 183.697 142.447 181.35 141.561C176.614 139.791 177.234 151.742 177.809 154.221" stroke="black" stroke-width="1.2" stroke-miterlimit="10" stroke-linecap="round" stroke-linejoin="round"/>
<path d="M185.601 294.988C263.509 293.97 325.482 229.031 325.482 151.123" stroke="white" stroke-width="2" stroke-linecap="round" stroke-linejoin="round"/>
</svg>
