<svg xmlns="http://www.w3.org/2000/svg" viewBox="0 0 120 120">
  <g>
    <g>
      <path d="M120,60A60,60,0,1,1,60,0q2.379,0,4.7.188a10.965,10.965,0,0,0-1.044,4.685,11.126,11.126,0,0,0,10.466,11.1,12.509,12.509,0,0,0,6.219,18.782,12.54,12.54,0,0,0,9.84-.626,11.135,11.135,0,0,0,11.04,9.694,10.924,10.924,0,0,0,5.166-1.283,9.748,9.748,0,0,0,12.271,4.8A59.534,59.534,0,0,1,120,60Z" fill="#e9ac58"/>
      <path d="M59.494,4.176q-.017.348-.016.7a15.318,15.318,0,0,0,8.88,13.885A16.671,16.671,0,0,0,78.924,38.685a16.464,16.464,0,0,0,5.6.967,16.949,16.949,0,0,0,2.932-.253,15.3,15.3,0,0,0,17.33,8.177,13.811,13.811,0,0,0,10.343,4.6h.153a55.829,55.829,0,1,1-55.786-48M60,0a59.978,59.978,0,1,0,58.654,47.343,9.748,9.748,0,0,1-12.271-4.8,10.924,10.924,0,0,1-5.166,1.283,11.135,11.135,0,0,1-11.04-9.694,12.54,12.54,0,0,1-9.84.626,12.534,12.534,0,0,1-6.219-18.782,11.126,11.126,0,0,1-10.466-11.1A10.965,10.965,0,0,1,64.7.188Q62.379,0,60,0Z" fill="#e3a14e"/>
    </g>
    <path d="M35.061,33.183a6.793,6.793,0,0,0,2.469,5.236A6.784,6.784,0,1,1,43.444,26.59a6.894,6.894,0,0,0-1.6-.19A6.785,6.785,0,0,0,35.061,33.183Z" fill="#451909"/>
    <path d="M45.913,31.826a6.786,6.786,0,0,1-6.783,6.783,6.891,6.891,0,0,1-1.6-.19A6.784,6.784,0,0,1,41.843,26.4a6.894,6.894,0,0,1,1.6.19A6.791,6.791,0,0,1,45.913,31.826Z" fill="#61230d"/>
    <path d="M60.422,86.487a8.707,8.707,0,0,1-1.465.122A10.174,10.174,0,1,1,62.9,67.061a10.167,10.167,0,0,0-2.482,19.426Z" fill="#451909"/>
    <path d="M69.13,76.435a10.161,10.161,0,0,1-8.695,10.052h-.013A10.167,10.167,0,0,1,62.9,67.061h.014A10.191,10.191,0,0,1,69.13,76.435Z" fill="#61230d"/>
    <path d="M73.4,100.341a4.625,4.625,0,0,0-2.441-.689,4.69,4.69,0,0,0-4.7,4.7,4.622,4.622,0,0,0,.689,2.442,4.693,4.693,0,1,1,6.448-6.449Z" fill="#451909"/>
    <path d="M74.087,102.783a4.689,4.689,0,0,1-4.7,4.695,4.624,4.624,0,0,1-2.441-.688,4.622,4.622,0,0,1-.689-2.442,4.69,4.69,0,0,1,4.7-4.7,4.625,4.625,0,0,1,2.441.689A4.616,4.616,0,0,1,74.087,102.783Z" fill="#61230d"/>
    <path d="M20.87,66.783a5.222,5.222,0,0,0,1.9,4.027,5.218,5.218,0,1,1,4.549-9.1,5.292,5.292,0,0,0-1.231-.146A5.219,5.219,0,0,0,20.87,66.783Z" fill="#451909"/>
    <path d="M29.217,65.739A5.219,5.219,0,0,1,24,70.957a5.292,5.292,0,0,1-1.231-.147,5.218,5.218,0,0,1,3.318-9.245,5.292,5.292,0,0,1,1.231.146A5.227,5.227,0,0,1,29.217,65.739Z" fill="#61230d"/>
    <path d="M103.43,59.353a6.172,6.172,0,0,0-3.256-.918A6.266,6.266,0,0,0,93.913,64.7a6.166,6.166,0,0,0,.918,3.255,6.258,6.258,0,1,1,8.6-8.6Z" fill="#451909"/>
    <path d="M104.348,62.609a6.266,6.266,0,0,1-6.261,6.261,6.164,6.164,0,0,1-3.256-.919,6.166,6.166,0,0,1-.918-3.255,6.266,6.266,0,0,1,6.261-6.261,6.172,6.172,0,0,1,3.256.918A6.172,6.172,0,0,1,104.348,62.609Z" fill="#61230d"/>
    <path d="M73.043,36a4.623,4.623,0,0,0,1.639,3.548,4.694,4.694,0,0,1-.23-9.131,11.56,11.56,0,0,0,1.2,1.378A4.685,4.685,0,0,0,73.043,36Z" fill="#451909"/>
    <path d="M80.337,34.758c0,.021.011.052,0,.073a4.325,4.325,0,0,1-.375-.219C80.087,34.664,80.212,34.716,80.337,34.758Z" fill="#451909"/>
    <path d="M80.348,34.957a4.689,4.689,0,0,1-4.7,4.7,4.253,4.253,0,0,1-.97-.1A4.623,4.623,0,0,1,73.043,36a4.685,4.685,0,0,1,2.609-4.2,12.206,12.206,0,0,0,4.31,2.817,4.325,4.325,0,0,0,.375.219A.489.489,0,0,1,80.348,34.957Z" fill="#61230d"/>
  </g>
</svg>
