<?xml version="1.0" encoding="utf-8"?>
<!-- Generator: Adobe Illustrator 19.0.0, SVG Export Plug-In . SVG Version: 6.00 Build 0)  -->
<svg version="1.1" id="Layer_1" xmlns="http://www.w3.org/2000/svg" xmlns:xlink="http://www.w3.org/1999/xlink" x="0px" y="0px"
	 viewBox="0 0 96 96" enable-background="new 0 0 96 96" xml:space="preserve">
<g id="XMLID_230_">
	<g id="XMLID_19_">
		<circle id="XMLID_25_" opacity="0" fill="#FFFFFF" cx="48.5" cy="51.7" r="41.7"/>
		<circle id="XMLID_231_" opacity="3.398058e-003" fill="#FEFEFE" cx="48.5" cy="51.7" r="41.6"/>
		<circle id="XMLID_229_" opacity="6.796116e-003" fill="#FDFDFD" cx="48.5" cy="51.7" r="41.5"/>
		<circle id="XMLID_228_" opacity="1.019417e-002" fill="#FCFCFD" cx="48.5" cy="51.7" r="41.4"/>
		<circle id="XMLID_227_" opacity="1.359223e-002" fill="#FBFBFC" cx="48.5" cy="51.7" r="41.4"/>
		<circle id="XMLID_226_" opacity="1.699029e-002" fill="#FAFAFB" cx="48.5" cy="51.6" r="41.3"/>
		<circle id="XMLID_225_" opacity="2.038835e-002" fill="#F9FAFA" cx="48.5" cy="51.6" r="41.2"/>
		<circle id="XMLID_224_" opacity="2.378641e-002" fill="#F8F9F9" cx="48.5" cy="51.6" r="41.1"/>
		<circle id="XMLID_223_" opacity="2.718447e-002" fill="#F7F8F9" cx="48.5" cy="51.6" r="41"/>
		<circle id="XMLID_222_" opacity="3.058252e-002" fill="#F6F7F8" cx="48.5" cy="51.6" r="41"/>
		<circle id="XMLID_221_" opacity="3.398058e-002" fill="#F5F6F7" cx="48.5" cy="51.6" r="40.9"/>
		<circle id="XMLID_220_" opacity="3.737864e-002" fill="#F4F5F6" cx="48.5" cy="51.6" r="40.8"/>
		<circle id="XMLID_219_" opacity="4.077670e-002" fill="#F3F4F5" cx="48.5" cy="51.6" r="40.7"/>
		<circle id="XMLID_218_" opacity="4.417476e-002" fill="#F2F3F5" cx="48.5" cy="51.6" r="40.7"/>
		<circle id="XMLID_217_" opacity="4.757281e-002" fill="#F1F2F4" cx="48.5" cy="51.5" r="40.6"/>
		<circle id="XMLID_216_" opacity="5.097087e-002" fill="#F0F1F3" cx="48.5" cy="51.5" r="40.5"/>
		<circle id="XMLID_215_" opacity="5.436893e-002" fill="#EFF1F2" cx="48.5" cy="51.5" r="40.4"/>
		<circle id="XMLID_214_" opacity="5.776699e-002" fill="#EEF0F1" cx="48.5" cy="51.5" r="40.4"/>
		<circle id="XMLID_213_" opacity="6.116505e-002" fill="#EDEFF0" cx="48.5" cy="51.5" r="40.3"/>
		<circle id="XMLID_212_" opacity="6.456311e-002" fill="#ECEEF0" cx="48.5" cy="51.5" r="40.2"/>
		<circle id="XMLID_211_" opacity="6.796116e-002" fill="#EBEDEF" cx="48.5" cy="51.5" r="40.1"/>
		<circle id="XMLID_210_" opacity="7.135922e-002" fill="#EAECEE" cx="48.5" cy="51.5" r="40"/>
		<circle id="XMLID_209_" opacity="7.475728e-002" fill="#E9EBED" cx="48.5" cy="51.5" r="40"/>
		<circle id="XMLID_208_" opacity="7.815534e-002" fill="#E8EAEC" cx="48.5" cy="51.4" r="39.9"/>
		<circle id="XMLID_207_" opacity="8.155340e-002" fill="#E7E9EC" cx="48.5" cy="51.4" r="39.8"/>
		<circle id="XMLID_206_" opacity="8.495145e-002" fill="#E6E8EB" cx="48.5" cy="51.4" r="39.7"/>
		<circle id="XMLID_205_" opacity="8.834951e-002" fill="#E5E8EA" cx="48.5" cy="51.4" r="39.7"/>
		<circle id="XMLID_204_" opacity="9.174757e-002" fill="#E4E7E9" cx="48.5" cy="51.4" r="39.6"/>
		<circle id="XMLID_203_" opacity="9.514563e-002" fill="#E3E6E8" cx="48.5" cy="51.4" r="39.5"/>
		<circle id="XMLID_202_" opacity="9.854369e-002" fill="#E2E5E8" cx="48.5" cy="51.4" r="39.4"/>
		<circle id="XMLID_201_" opacity="0.1019" fill="#E1E4E7" cx="48.5" cy="51.4" r="39.4"/>
		<circle id="XMLID_200_" opacity="0.1053" fill="#E0E3E6" cx="48.5" cy="51.4" r="39.3"/>
		<circle id="XMLID_199_" opacity="0.1087" fill="#DFE2E5" cx="48.5" cy="51.3" r="39.2"/>
		<circle id="XMLID_198_" opacity="0.1121" fill="#DEE1E4" cx="48.5" cy="51.3" r="39.1"/>
		<circle id="XMLID_197_" opacity="0.1155" fill="#DDE0E4" cx="48.5" cy="51.3" r="39"/>
		<circle id="XMLID_196_" opacity="0.1189" fill="#DCDFE3" cx="48.5" cy="51.3" r="39"/>
		<circle id="XMLID_195_" opacity="0.1223" fill="#DBDEE2" cx="48.5" cy="51.3" r="38.9"/>
		<circle id="XMLID_194_" opacity="0.1257" fill="#DADEE1" cx="48.5" cy="51.3" r="38.8"/>
		<circle id="XMLID_193_" opacity="0.1291" fill="#D9DDE0" cx="48.5" cy="51.3" r="38.7"/>
		<circle id="XMLID_192_" opacity="0.1325" fill="#D8DCE0" cx="48.5" cy="51.3" r="38.7"/>
		<circle id="XMLID_191_" opacity="0.1359" fill="#D7DBDF" cx="48.5" cy="51.3" r="38.6"/>
		<circle id="XMLID_190_" opacity="0.1393" fill="#D6DADE" cx="48.5" cy="51.2" r="38.5"/>
		<circle id="XMLID_189_" opacity="0.1427" fill="#D5D9DD" cx="48.5" cy="51.2" r="38.4"/>
		<circle id="XMLID_188_" opacity="0.1461" fill="#D4D8DC" cx="48.5" cy="51.2" r="38.4"/>
		<circle id="XMLID_187_" opacity="0.1495" fill="#D3D7DC" cx="48.5" cy="51.2" r="38.3"/>
		<circle id="XMLID_186_" opacity="0.1529" fill="#D2D6DB" cx="48.5" cy="51.2" r="38.2"/>
		<circle id="XMLID_185_" opacity="0.1563" fill="#D1D5DA" cx="48.5" cy="51.2" r="38.1"/>
		<circle id="XMLID_184_" opacity="0.1597" fill="#D0D5D9" cx="48.5" cy="51.2" r="38"/>
		<circle id="XMLID_183_" opacity="0.1631" fill="#CFD4D8" cx="48.5" cy="51.2" r="38"/>
		<circle id="XMLID_182_" opacity="0.1665" fill="#CED3D8" cx="48.5" cy="51.2" r="37.9"/>
		<circle id="XMLID_181_" opacity="0.1699" fill="#CDD2D7" cx="48.5" cy="51.1" r="37.8"/>
		<circle id="XMLID_180_" opacity="0.1733" fill="#CCD1D6" cx="48.5" cy="51.1" r="37.7"/>
		<circle id="XMLID_179_" opacity="0.1767" fill="#CBD0D5" cx="48.5" cy="51.1" r="37.7"/>
		<circle id="XMLID_178_" opacity="0.1801" fill="#CACFD4" cx="48.5" cy="51.1" r="37.6"/>
		<circle id="XMLID_177_" opacity="0.1835" fill="#C9CED3" cx="48.5" cy="51.1" r="37.5"/>
		<circle id="XMLID_176_" opacity="0.1869" fill="#C8CDD3" cx="48.5" cy="51.1" r="37.4"/>
		<circle id="XMLID_175_" opacity="0.1903" fill="#C7CCD2" cx="48.5" cy="51.1" r="37.4"/>
		<circle id="XMLID_174_" opacity="0.1937" fill="#C6CCD1" cx="48.5" cy="51.1" r="37.3"/>
		<circle id="XMLID_173_" opacity="0.1971" fill="#C5CBD0" cx="48.5" cy="51.1" r="37.2"/>
		<circle id="XMLID_172_" opacity="0.2005" fill="#C4CACF" cx="48.5" cy="51" r="37.1"/>
		<circle id="XMLID_171_" opacity="0.2039" fill="#C3C9CF" cx="48.5" cy="51" r="37"/>
		<circle id="XMLID_170_" opacity="0.2073" fill="#C2C8CE" cx="48.5" cy="51" r="37"/>
		<circle id="XMLID_169_" opacity="0.2107" fill="#C1C7CD" cx="48.5" cy="51" r="36.9"/>
		<circle id="XMLID_168_" opacity="0.2141" fill="#C0C6CC" cx="48.5" cy="51" r="36.8"/>
		<circle id="XMLID_167_" opacity="0.2175" fill="#BFC5CB" cx="48.5" cy="51" r="36.7"/>
		<circle id="XMLID_166_" opacity="0.2209" fill="#BEC4CB" cx="48.5" cy="51" r="36.7"/>
		<circle id="XMLID_165_" opacity="0.2243" fill="#BDC3CA" cx="48.5" cy="51" r="36.6"/>
		<circle id="XMLID_164_" opacity="0.2277" fill="#BCC3C9" cx="48.5" cy="51" r="36.5"/>
		<circle id="XMLID_163_" opacity="0.2311" fill="#BBC2C8" cx="48.5" cy="50.9" r="36.4"/>
		<circle id="XMLID_162_" opacity="0.2345" fill="#BAC1C7" cx="48.5" cy="50.9" r="36.4"/>
		<circle id="XMLID_161_" opacity="0.2379" fill="#B9C0C7" cx="48.5" cy="50.9" r="36.3"/>
		<circle id="XMLID_160_" opacity="0.2413" fill="#B8BFC6" cx="48.5" cy="50.9" r="36.2"/>
		<circle id="XMLID_159_" opacity="0.2447" fill="#B7BEC5" cx="48.5" cy="50.9" r="36.1"/>
		<circle id="XMLID_158_" opacity="0.2481" fill="#B6BDC4" cx="48.5" cy="50.9" r="36"/>
		<circle id="XMLID_157_" opacity="0.2515" fill="#B5BCC3" cx="48.5" cy="50.9" r="36"/>
		<circle id="XMLID_156_" opacity="0.2549" fill="#B4BBC3" cx="48.5" cy="50.9" r="35.9"/>
		<circle id="XMLID_155_" opacity="0.2583" fill="#B3BAC2" cx="48.5" cy="50.9" r="35.8"/>
		<circle id="XMLID_154_" opacity="0.2617" fill="#B2B9C1" cx="48.5" cy="50.8" r="35.7"/>
		<circle id="XMLID_153_" opacity="0.265" fill="#B1B9C0" cx="48.5" cy="50.8" r="35.7"/>
		<circle id="XMLID_152_" opacity="0.2684" fill="#B0B8BF" cx="48.5" cy="50.8" r="35.6"/>
		<circle id="XMLID_151_" opacity="0.2718" fill="#AFB7BF" cx="48.5" cy="50.8" r="35.5"/>
		<circle id="XMLID_150_" opacity="0.2752" fill="#AEB6BE" cx="48.5" cy="50.8" r="35.4"/>
		<circle id="XMLID_149_" opacity="0.2786" fill="#ADB5BD" cx="48.5" cy="50.8" r="35.4"/>
		<circle id="XMLID_148_" opacity="0.282" fill="#ACB4BC" cx="48.5" cy="50.8" r="35.3"/>
		<circle id="XMLID_147_" opacity="0.2854" fill="#ABB3BB" cx="48.5" cy="50.8" r="35.2"/>
		<circle id="XMLID_146_" opacity="0.2888" fill="#AAB2BB" cx="48.5" cy="50.8" r="35.1"/>
		<circle id="XMLID_145_" opacity="0.2922" fill="#A9B1BA" cx="48.5" cy="50.7" r="35"/>
		<circle id="XMLID_144_" opacity="0.2956" fill="#A8B0B9" cx="48.5" cy="50.7" r="35"/>
		<circle id="XMLID_143_" opacity="0.299" fill="#A7B0B8" cx="48.5" cy="50.7" r="34.9"/>
		<circle id="XMLID_142_" opacity="0.3024" fill="#A6AFB7" cx="48.5" cy="50.7" r="34.8"/>
		<circle id="XMLID_141_" opacity="0.3058" fill="#A5AEB6" cx="48.5" cy="50.7" r="34.7"/>
		<circle id="XMLID_140_" opacity="0.3092" fill="#A4ADB6" cx="48.5" cy="50.7" r="34.7"/>
		<circle id="XMLID_139_" opacity="0.3126" fill="#A3ACB5" cx="48.5" cy="50.7" r="34.6"/>
		<circle id="XMLID_138_" opacity="0.316" fill="#A2ABB4" cx="48.5" cy="50.7" r="34.5"/>
		<circle id="XMLID_137_" opacity="0.3194" fill="#A1AAB3" cx="48.5" cy="50.7" r="34.4"/>
		<circle id="XMLID_136_" opacity="0.3228" fill="#A0A9B2" cx="48.5" cy="50.6" r="34.3"/>
		<circle id="XMLID_135_" opacity="0.3262" fill="#9FA8B2" cx="48.5" cy="50.6" r="34.3"/>
		<circle id="XMLID_134_" opacity="0.3296" fill="#9EA7B1" cx="48.5" cy="50.6" r="34.2"/>
		<circle id="XMLID_133_" opacity="0.333" fill="#9DA7B0" cx="48.5" cy="50.6" r="34.1"/>
		<circle id="XMLID_132_" opacity="0.3364" fill="#9CA6AF" cx="48.5" cy="50.6" r="34"/>
		<circle id="XMLID_131_" opacity="0.3398" fill="#9BA5AE" cx="48.5" cy="50.6" r="34"/>
		<circle id="XMLID_130_" opacity="0.3432" fill="#9AA4AE" cx="48.5" cy="50.6" r="33.9"/>
		<circle id="XMLID_129_" opacity="0.3466" fill="#99A3AD" cx="48.5" cy="50.6" r="33.8"/>
		<circle id="XMLID_128_" opacity="0.35" fill="#98A2AC" cx="48.5" cy="50.6" r="33.7"/>
		<circle id="XMLID_127_" opacity="0.3534" fill="#97A1AB" cx="48.5" cy="50.5" r="33.7"/>
		<circle id="XMLID_126_" opacity="0.3568" fill="#96A0AA" cx="48.5" cy="50.5" r="33.6"/>
		<circle id="XMLID_125_" opacity="0.3602" fill="#959FAA" cx="48.5" cy="50.5" r="33.5"/>
		<circle id="XMLID_124_" opacity="0.3636" fill="#949EA9" cx="48.5" cy="50.5" r="33.4"/>
		<circle id="XMLID_123_" opacity="0.367" fill="#939DA8" cx="48.5" cy="50.5" r="33.3"/>
		<circle id="XMLID_122_" opacity="0.3704" fill="#929DA7" cx="48.5" cy="50.5" r="33.3"/>
		<circle id="XMLID_121_" opacity="0.3738" fill="#919CA6" cx="48.5" cy="50.5" r="33.2"/>
		<circle id="XMLID_120_" opacity="0.3772" fill="#909BA6" cx="48.5" cy="50.5" r="33.1"/>
		<circle id="XMLID_119_" opacity="0.3806" fill="#8F9AA5" cx="48.5" cy="50.5" r="33"/>
		<circle id="XMLID_118_" opacity="0.384" fill="#8E99A4" cx="48.5" cy="50.4" r="33"/>
		<circle id="XMLID_117_" opacity="0.3874" fill="#8D98A3" cx="48.5" cy="50.4" r="32.9"/>
		<circle id="XMLID_116_" opacity="0.3908" fill="#8C97A2" cx="48.5" cy="50.4" r="32.8"/>
		<circle id="XMLID_115_" opacity="0.3942" fill="#8B96A2" cx="48.5" cy="50.4" r="32.7"/>
		<circle id="XMLID_114_" opacity="0.3976" fill="#8A95A1" cx="48.5" cy="50.4" r="32.7"/>
		<circle id="XMLID_113_" opacity="0.401" fill="#8994A0" cx="48.5" cy="50.4" r="32.6"/>
		<circle id="XMLID_112_" opacity="0.4044" fill="#88949F" cx="48.5" cy="50.4" r="32.5"/>
		<circle id="XMLID_111_" opacity="0.4078" fill="#87939E" cx="48.5" cy="50.4" r="32.4"/>
		<circle id="XMLID_110_" opacity="0.4112" fill="#86929D" cx="48.5" cy="50.4" r="32.3"/>
		<circle id="XMLID_109_" opacity="0.4146" fill="#85919D" cx="48.5" cy="50.3" r="32.3"/>
		<circle id="XMLID_108_" opacity="0.418" fill="#84909C" cx="48.5" cy="50.3" r="32.2"/>
		<circle id="XMLID_107_" opacity="0.4214" fill="#838F9B" cx="48.5" cy="50.3" r="32.1"/>
		<circle id="XMLID_106_" opacity="0.4248" fill="#828E9A" cx="48.5" cy="50.3" r="32"/>
		<circle id="XMLID_105_" opacity="0.4282" fill="#818D99" cx="48.5" cy="50.3" r="32"/>
		<circle id="XMLID_104_" opacity="0.4316" fill="#808C99" cx="48.5" cy="50.3" r="31.9"/>
		<circle id="XMLID_103_" opacity="0.435" fill="#7F8B98" cx="48.5" cy="50.3" r="31.8"/>
		<circle id="XMLID_102_" opacity="0.4383" fill="#7E8B97" cx="48.5" cy="50.3" r="31.7"/>
		<circle id="XMLID_101_" opacity="0.4417" fill="#7D8A96" cx="48.5" cy="50.3" r="31.7"/>
		<circle id="XMLID_100_" opacity="0.4451" fill="#7C8995" cx="48.5" cy="50.2" r="31.6"/>
		<circle id="XMLID_99_" opacity="0.4485" fill="#7B8895" cx="48.5" cy="50.2" r="31.5"/>
		<circle id="XMLID_98_" opacity="0.4519" fill="#7A8794" cx="48.5" cy="50.2" r="31.4"/>
		<circle id="XMLID_97_" opacity="0.4553" fill="#798693" cx="48.5" cy="50.2" r="31.3"/>
		<circle id="XMLID_96_" opacity="0.4587" fill="#788592" cx="48.5" cy="50.2" r="31.3"/>
		<circle id="XMLID_95_" opacity="0.4621" fill="#778491" cx="48.5" cy="50.2" r="31.2"/>
		<circle id="XMLID_94_" opacity="0.4655" fill="#768391" cx="48.5" cy="50.2" r="31.1"/>
		<circle id="XMLID_93_" opacity="0.4689" fill="#758290" cx="48.5" cy="50.2" r="31"/>
		<circle id="XMLID_92_" opacity="0.4723" fill="#74818F" cx="48.5" cy="50.2" r="31"/>
		<circle id="XMLID_91_" opacity="0.4757" fill="#73818E" cx="48.5" cy="50.1" r="30.9"/>
		<circle id="XMLID_90_" opacity="0.4791" fill="#72808D" cx="48.5" cy="50.1" r="30.8"/>
		<circle id="XMLID_89_" opacity="0.4825" fill="#717F8D" cx="48.5" cy="50.1" r="30.7"/>
		<circle id="XMLID_88_" opacity="0.4859" fill="#707E8C" cx="48.5" cy="50.1" r="30.7"/>
		<circle id="XMLID_87_" opacity="0.4893" fill="#6F7D8B" cx="48.5" cy="50.1" r="30.6"/>
		<circle id="XMLID_86_" opacity="0.4927" fill="#6E7C8A" cx="48.5" cy="50.1" r="30.5"/>
		<circle id="XMLID_85_" opacity="0.4961" fill="#6D7B89" cx="48.5" cy="50.1" r="30.4"/>
		<circle id="XMLID_84_" opacity="0.4995" fill="#6C7A89" cx="48.5" cy="50.1" r="30.3"/>
		<circle id="XMLID_83_" opacity="0.5029" fill="#6B7988" cx="48.5" cy="50.1" r="30.3"/>
		<circle id="XMLID_82_" opacity="0.5063" fill="#6A7887" cx="48.5" cy="50" r="30.2"/>
		<circle id="XMLID_81_" opacity="0.5097" fill="#697886" cx="48.5" cy="50" r="30.1"/>
		<circle id="XMLID_80_" opacity="0.5131" fill="#687785" cx="48.5" cy="50" r="30"/>
		<circle id="XMLID_79_" opacity="0.5165" fill="#677685" cx="48.5" cy="50" r="30"/>
		<circle id="XMLID_78_" opacity="0.5199" fill="#667584" cx="48.5" cy="50" r="29.9"/>
		<circle id="XMLID_77_" opacity="0.5233" fill="#657483" cx="48.5" cy="50" r="29.8"/>
		<circle id="XMLID_76_" opacity="0.5267" fill="#647382" cx="48.5" cy="50" r="29.7"/>
		<circle id="XMLID_75_" opacity="0.5301" fill="#637281" cx="48.5" cy="50" r="29.7"/>
		<circle id="XMLID_74_" opacity="0.5335" fill="#627180" cx="48.5" cy="50" r="29.6"/>
		<circle id="XMLID_73_" opacity="0.5369" fill="#617080" cx="48.5" cy="49.9" r="29.5"/>
		<circle id="XMLID_72_" opacity="0.5403" fill="#606F7F" cx="48.5" cy="49.9" r="29.4"/>
		<circle id="XMLID_71_" opacity="0.5437" fill="#5F6F7E" cx="48.5" cy="49.9" r="29.3"/>
		<circle id="XMLID_70_" opacity="0.5471" fill="#5E6E7D" cx="48.5" cy="49.9" r="29.3"/>
		<circle id="XMLID_69_" opacity="0.5505" fill="#5D6D7C" cx="48.5" cy="49.9" r="29.2"/>
		<circle id="XMLID_68_" opacity="0.5539" fill="#5C6C7C" cx="48.5" cy="49.9" r="29.1"/>
		<circle id="XMLID_67_" opacity="0.5573" fill="#5B6B7B" cx="48.5" cy="49.9" r="29"/>
		<circle id="XMLID_66_" opacity="0.5607" fill="#5A6A7A" cx="48.5" cy="49.9" r="29"/>
		<circle id="XMLID_65_" opacity="0.5641" fill="#596979" cx="48.5" cy="49.9" r="28.9"/>
		<circle id="XMLID_64_" opacity="0.5675" fill="#586878" cx="48.5" cy="49.8" r="28.8"/>
		<circle id="XMLID_63_" opacity="0.5709" fill="#576778" cx="48.5" cy="49.8" r="28.7"/>
		<circle id="XMLID_62_" opacity="0.5743" fill="#566677" cx="48.5" cy="49.8" r="28.7"/>
		<circle id="XMLID_61_" opacity="0.5777" fill="#556676" cx="48.5" cy="49.8" r="28.6"/>
		<circle id="XMLID_60_" opacity="0.5811" fill="#546575" cx="48.5" cy="49.8" r="28.5"/>
		<circle id="XMLID_59_" opacity="0.5845" fill="#536474" cx="48.5" cy="49.8" r="28.4"/>
		<circle id="XMLID_58_" opacity="0.5879" fill="#526374" cx="48.5" cy="49.8" r="28.3"/>
		<circle id="XMLID_57_" opacity="0.5913" fill="#516273" cx="48.5" cy="49.8" r="28.3"/>
		<circle id="XMLID_56_" opacity="0.5947" fill="#506172" cx="48.5" cy="49.8" r="28.2"/>
		<circle id="XMLID_55_" opacity="0.5981" fill="#4F6071" cx="48.5" cy="49.7" r="28.1"/>
		<circle id="XMLID_54_" opacity="0.6015" fill="#4E5F70" cx="48.5" cy="49.7" r="28"/>
		<circle id="XMLID_53_" opacity="0.6049" fill="#4D5E70" cx="48.5" cy="49.7" r="28"/>
		<circle id="XMLID_52_" opacity="0.6083" fill="#4C5D6F" cx="48.5" cy="49.7" r="27.9"/>
		<circle id="XMLID_51_" opacity="0.6117" fill="#4B5C6E" cx="48.5" cy="49.7" r="27.8"/>
		<circle id="XMLID_50_" opacity="0.615" fill="#4A5C6D" cx="48.5" cy="49.7" r="27.7"/>
		<circle id="XMLID_49_" opacity="0.6184" fill="#495B6C" cx="48.5" cy="49.7" r="27.7"/>
		<circle id="XMLID_48_" opacity="0.6218" fill="#485A6C" cx="48.5" cy="49.7" r="27.6"/>
		<circle id="XMLID_47_" opacity="0.6252" fill="#47596B" cx="48.5" cy="49.7" r="27.5"/>
		<circle id="XMLID_46_" opacity="0.6286" fill="#46586A" cx="48.5" cy="49.6" r="27.4"/>
		<circle id="XMLID_45_" opacity="0.632" fill="#455769" cx="48.5" cy="49.6" r="27.3"/>
		<circle id="XMLID_44_" opacity="0.6354" fill="#445668" cx="48.5" cy="49.6" r="27.3"/>
		<circle id="XMLID_43_" opacity="0.6388" fill="#435568" cx="48.5" cy="49.6" r="27.2"/>
		<circle id="XMLID_42_" opacity="0.6422" fill="#425467" cx="48.5" cy="49.6" r="27.1"/>
		<circle id="XMLID_41_" opacity="0.6456" fill="#415366" cx="48.5" cy="49.6" r="27"/>
		<circle id="XMLID_40_" opacity="0.649" fill="#405365" cx="48.5" cy="49.6" r="27"/>
		<circle id="XMLID_39_" opacity="0.6524" fill="#3F5264" cx="48.5" cy="49.6" r="26.9"/>
		<circle id="XMLID_38_" opacity="0.6558" fill="#3E5163" cx="48.5" cy="49.6" r="26.8"/>
		<circle id="XMLID_37_" opacity="0.6592" fill="#3D5063" cx="48.5" cy="49.5" r="26.7"/>
		<circle id="XMLID_36_" opacity="0.6626" fill="#3C4F62" cx="48.5" cy="49.5" r="26.7"/>
		<circle id="XMLID_35_" opacity="0.666" fill="#3B4E61" cx="48.5" cy="49.5" r="26.6"/>
		<circle id="XMLID_34_" opacity="0.6694" fill="#3A4D60" cx="48.5" cy="49.5" r="26.5"/>
		<circle id="XMLID_33_" opacity="0.6728" fill="#394C5F" cx="48.5" cy="49.5" r="26.4"/>
		<circle id="XMLID_32_" opacity="0.6762" fill="#384B5F" cx="48.5" cy="49.5" r="26.3"/>
		<circle id="XMLID_31_" opacity="0.6796" fill="#374A5E" cx="48.5" cy="49.5" r="26.3"/>
		<circle id="XMLID_30_" opacity="0.683" fill="#364A5D" cx="48.5" cy="49.5" r="26.2"/>
		<circle id="XMLID_29_" opacity="0.6864" fill="#35495C" cx="48.5" cy="49.5" r="26.1"/>
		<circle id="XMLID_28_" opacity="0.6898" fill="#34485B" cx="48.5" cy="49.4" r="26"/>
		<circle id="XMLID_27_" opacity="0.6932" fill="#33475B" cx="48.5" cy="49.4" r="26"/>
		<circle id="XMLID_26_" opacity="0.6966" fill="#32465A" cx="48.5" cy="49.4" r="25.9"/>
		<circle id="XMLID_24_" opacity="0.7" fill="#314559" cx="48.5" cy="49.4" r="25.8"/>
	</g>
	
		<linearGradient id="XMLID_233_" gradientUnits="userSpaceOnUse" x1="6681.9922" y1="-384.269" x2="6754.1016" y2="-384.269" gradientTransform="matrix(0 1 -1 0 -334.2423 -6674.2422)">
		<stop  offset="0" style="stop-color:#FFFFFF"/>
		<stop  offset="0.2837" style="stop-color:#FAFBFC"/>
		<stop  offset="0.5978" style="stop-color:#EDEFF2"/>
		<stop  offset="0.9252" style="stop-color:#D7DBE2"/>
		<stop  offset="1" style="stop-color:#D1D5DE"/>
	</linearGradient>
	<circle id="XMLID_18_" fill="url(#XMLID_233_)" cx="50" cy="43.8" r="36.1"/>
	<g id="XMLID_4_">
		<g id="XMLID_5_">
			<g id="XMLID_813_">
				<g id="XMLID_826_">
					<path id="XMLID_775_" fill="#FFFFFF" d="M63,54c-0.7,1-2.1,1.2-3,0.4c0.9,0.8,1.1,2.3,0.3,3.3c-0.7,1-2.1,1.2-3,0.4l-0.9-0.8
						c0.5,0.4,0.8,1.1,0.8,1.7c0,0.5-0.1,1.1-0.5,1.5c-0.7,1-2.1,1.2-3,0.4l-1.7-1.5c0.5,0.4,0.8,1.1,0.8,1.7c0,0.5-0.1,0.9-0.4,1.3
						c-0.4,0.6-1.5,1.4-2.6,0.5L31.2,47.9c0.2-0.1,0.3-0.2,0.5-0.4l6.9-9.6c0.4-0.6,0.8-1,0.8-1c0.3-0.1,0.8,0.3,1.7,0.2
						c2.4,0,7.9,0,9.8,1.2c0.6,0.4,10.6,11.3,10.6,11.3l1.3,1.1C63.6,51.5,63.8,53,63,54z"/>
					<path id="XMLID_827_" fill="#003887" d="M50.9,63.9c-0.4,0-0.9-0.2-1.3-0.5c0,0,0,0,0,0L30.9,48.2c-0.1-0.1-0.1-0.2-0.1-0.3
						c0-0.1,0.1-0.2,0.2-0.3c0.1-0.1,0.2-0.2,0.3-0.3l6.9-9.6c0.4-0.6,0.8-1,0.9-1c0.1-0.1,0.1-0.1,0.2-0.1c0.2,0,0.4,0,0.7,0.1
						c0.3,0.1,0.6,0.2,1.1,0.2c5.3-0.1,8.5,0.4,10,1.3c0.7,0.4,9,9.5,10.7,11.3l1.3,1.1c1.1,0.9,1.2,2.6,0.4,3.8l0,0
						c-0.4,0.6-1,1-1.7,1.1c-0.2,0-0.4,0-0.6,0c0.3,0.9,0.2,1.9-0.4,2.7c-0.4,0.6-1,1-1.7,1.1c-0.5,0.1-1,0-1.4-0.3
						c0,0.1,0,0.2,0,0.3c0,0.6-0.2,1.3-0.5,1.8c-0.4,0.6-1,1-1.7,1.1c-0.7,0.1-1.3-0.1-1.8-0.6l-0.3-0.3c0,0.1,0,0.2,0,0.3
						c0,0.6-0.1,1.1-0.5,1.6c-0.2,0.2-0.7,0.9-1.6,1C51.1,63.9,51,63.9,50.9,63.9z M50,62.9c0.3,0.2,0.7,0.3,1,0.3
						c0.5-0.1,0.9-0.4,1.1-0.7c0.3-0.4,0.4-0.6,0.3-1.1c0-0.6-0.3-1.1-0.7-1.5c-0.2-0.1-0.2-0.4,0-0.5c0.1-0.2,0.4-0.2,0.5,0
						l1.7,1.5c0.4,0.3,0.8,0.4,1.2,0.4c0.5-0.1,0.9-0.3,1.2-0.8c0.3-0.4,0.4-0.8,0.4-1.3c0-0.6-0.3-1.1-0.7-1.5l0,0c0,0,0,0,0,0
						c-0.2-0.1-0.2-0.4,0-0.5c0.1-0.2,0.4-0.2,0.5,0l0,0c0,0,0,0,0,0l0.9,0.8c0.4,0.3,0.8,0.4,1.2,0.4c0.5-0.1,0.9-0.3,1.2-0.8
						c0.6-0.9,0.5-2.1-0.3-2.8c-0.1-0.1-0.1-0.2-0.1-0.3c0-0.1,0-0.2,0.1-0.2c0.1-0.2,0.4-0.2,0.5,0c0.4,0.3,0.8,0.4,1.2,0.4
						c0.5-0.1,0.9-0.3,1.2-0.8c0.6-0.9,0.5-2.1-0.3-2.8l-1.3-1.1c0,0,0,0,0,0c-4-4.3-10-10.9-10.5-11.2c-1.3-0.8-4.5-1.2-9.6-1.1
						c-0.5,0-0.9-0.1-1.2-0.2c-0.1,0-0.2-0.1-0.3-0.1c-0.1,0.1-0.4,0.4-0.7,0.8l-6.9,9.6c-0.1,0.1-0.1,0.1-0.2,0.2L50,62.9z M63,54
						L63,54L63,54z"/>
				</g>
				<g id="XMLID_824_">
					<path id="XMLID_771_" fill="#003887" d="M60,54.8c-0.1,0-0.2,0-0.2-0.1l-3.7-3c-0.2-0.1-0.2-0.4-0.1-0.5
						c0.1-0.2,0.4-0.2,0.5-0.1l3.7,3c0.2,0.1,0.2,0.4,0.1,0.5C60.3,54.8,60.2,54.8,60,54.8z"/>
				</g>
				<g id="XMLID_822_">
					<path id="XMLID_770_" fill="#003887" d="M56.4,57.7c-0.1,0-0.2,0-0.2-0.1l-2.8-2.4c-0.2-0.1-0.2-0.4,0-0.5
						c0.1-0.2,0.4-0.2,0.5,0l2.8,2.4c0.2,0.1,0.2,0.4,0,0.5C56.6,57.7,56.5,57.7,56.4,57.7z"/>
				</g>
				<g id="XMLID_820_">
					<path id="XMLID_769_" fill="#003887" d="M52.1,60c-0.1,0-0.2,0-0.3-0.1l-0.6-0.6c-0.1-0.1-0.1-0.4,0-0.5c0.1-0.1,0.4-0.1,0.5,0
						l0.6,0.6c0.1,0.1,0.1,0.4,0,0.5C52.2,59.9,52.2,60,52.1,60z"/>
				</g>
				<g id="XMLID_814_">
					<g id="XMLID_815_">
						<path id="XMLID_768_" fill="#5D9AF0" d="M35.8,33.1l5.1,3.3c0.6,0.5,0.7,1.3,0.3,2l-7.4,10.8c-0.4,0.6-1.3,0.8-1.9,0.3
							L27,45.8L35.8,33.1z"/>
						<path id="XMLID_816_" fill="#003887" d="M32.7,50.2c-0.4,0-0.7-0.1-1-0.3l-4.9-3.7c-0.2-0.1-0.2-0.3-0.1-0.5l8.8-12.7
							c0.1-0.2,0.3-0.2,0.5-0.1l5.1,3.3c0,0,0,0,0,0c0.7,0.6,0.9,1.7,0.4,2.5l-7.4,10.8c-0.3,0.4-0.7,0.7-1.1,0.7
							C32.9,50.2,32.8,50.2,32.7,50.2z M27.5,45.8l4.6,3.5c0.2,0.2,0.4,0.2,0.7,0.2c0.3,0,0.5-0.2,0.6-0.4l7.4-10.8
							c0.3-0.5,0.2-1.1-0.2-1.5l-4.8-3.1L27.5,45.8z"/>
					</g>
				</g>
			</g>
			<g id="XMLID_810_">
				<path id="XMLID_765_" fill="#FFFFFF" d="M58.1,37.7c-0.4-0.1-2-0.4-3-0.4c-2.7-0.2-4.6,0.2-6.8,1.2l-6.5,3.1
					c-1.2,0.7-1.6,2.3-0.9,3.5l0,0c0.7,1.2,2.3,1.6,3.5,0.9l7.8-3.8L64,51.7l2.6-1.3L58.1,37.7z"/>
				<path id="XMLID_764_" fill="#003887" d="M64,52.1c-0.1,0-0.2,0-0.2-0.1l-11.8-9.5l-7.5,3.7c-1.4,0.8-3.2,0.3-4-1c0,0,0,0,0,0
					c-0.4-0.7-0.5-1.4-0.3-2.2c0.2-0.8,0.7-1.4,1.3-1.8c0,0,0,0,0,0l6.5-3.1c0,0,0,0,0,0c2.5-1.1,4.5-1.4,7-1.2c1,0.1,2.6,0.4,3,0.5
					c0.2,0,0.3,0.2,0.3,0.4c0,0.2-0.2,0.3-0.4,0.3c-0.3-0.1-1.9-0.3-2.9-0.4c-2.4-0.2-4.3,0.1-6.6,1.1l-6.5,3.1
					c-0.5,0.3-0.8,0.8-1,1.3c-0.1,0.6-0.1,1.1,0.2,1.6c0,0,0,0,0,0c0.6,1,1.9,1.4,3,0.8c0,0,0,0,0,0l7.8-3.8c0.1-0.1,0.3,0,0.4,0
					l11.7,9.5l2.4-1.2c0.2-0.1,0.4,0,0.5,0.2c0.1,0.2,0,0.4-0.2,0.5L64.2,52C64.2,52.1,64.1,52.1,64,52.1z"/>
			</g>
			<g id="XMLID_8_">
				<g id="XMLID_804_">
					<path id="XMLID_763_" fill="#FFFFFF" d="M46.4,57.8c0.8-0.7,2.1-0.6,2.8,0.2c0.7,0.9,0.6,2.2-0.2,2.9l-2,1.6
						c-0.8,0.4-1.8,0.3-2.5-0.5c-0.3-0.4-0.5-0.8-0.5-1.3c0-0.6,0.2-1.2,0.7-1.6L46.4,57.8z"/>
					<path id="XMLID_805_" fill="#003887" d="M46.1,63.1c-0.7,0-1.4-0.3-1.8-0.9c-0.3-0.4-0.5-1-0.6-1.5c0-0.7,0.3-1.4,0.8-1.9
						c0,0,0,0,0,0l1.6-1.3c0.5-0.4,1.1-0.6,1.7-0.6c0.6,0.1,1.2,0.4,1.6,0.9c0.8,1,0.7,2.5-0.3,3.4c0,0,0,0,0,0l-2,1.6
						c0,0,0,0-0.1,0C46.9,63,46.5,63.1,46.1,63.1z M45.1,59.4c-0.4,0.3-0.6,0.8-0.6,1.3c0,0.4,0.1,0.8,0.4,1.1
						c0.5,0.6,1.3,0.8,2,0.4l1.9-1.5c0.7-0.6,0.8-1.7,0.2-2.4c-0.3-0.3-0.7-0.6-1.1-0.6c-0.4,0-0.8,0.1-1.2,0.4c0,0,0,0,0,0
						L45.1,59.4z M46.4,57.8L46.4,57.8L46.4,57.8z"/>
				</g>
				<g id="XMLID_16_">
					<path id="XMLID_759_" fill="#FFFFFF" d="M39.7,53c0.5-0.4,0.7-1,0.7-1.6c0-0.5-0.2-0.9-0.5-1.3c-0.6-0.8-1.6-0.9-2.5-0.5
						l-2.7,2.2c-0.8,0.7-0.9,2-0.2,2.9c0.7,0.9,2,1,2.8,0.2L39.7,53z"/>
					<path id="XMLID_17_" fill="#003887" d="M36,55.8c-0.1,0-0.1,0-0.2,0c-0.6-0.1-1.2-0.4-1.6-0.9c-0.8-1-0.7-2.5,0.3-3.4
						c0,0,0,0,0,0l2.7-2.2c0,0,0,0,0.1,0c1-0.5,2.2-0.3,2.9,0.6c0.3,0.4,0.5,1,0.6,1.5c0,0.7-0.3,1.4-0.8,1.9c0,0,0,0,0,0l-2.4,2
						C37.1,55.6,36.5,55.8,36,55.8z M34.9,52.1c-0.7,0.6-0.8,1.7-0.2,2.4c0.3,0.3,0.7,0.6,1.1,0.6c0.4,0,0.8-0.1,1.2-0.4
						c0,0,0,0,0,0l2.4-2c0.4-0.3,0.6-0.8,0.6-1.3c0-0.4-0.1-0.8-0.4-1.1c-0.5-0.6-1.3-0.8-2-0.4L34.9,52.1z M39.7,53L39.7,53
						L39.7,53z"/>
				</g>
				<g id="XMLID_13_">
					<g id="XMLID_14_">
						<path id="XMLID_755_" fill="#FFFFFF" d="M43.8,54.8l0.9-0.8c0.8-0.7,2.1-0.6,2.8,0.2c0.7,0.9,0.6,2.2-0.2,2.9l-2.4,2l-1.6,1.4
							c-0.8,0.7-2.1,0.6-2.8-0.2C40.2,59.9,40,59.4,40,59c0-0.6,0.2-1.2,0.7-1.6L43.8,54.8z"/>
						<path id="XMLID_15_" fill="#003887" d="M42,61.4c-0.1,0-0.1,0-0.2,0c-0.6-0.1-1.2-0.4-1.6-0.9c-0.3-0.4-0.5-1-0.6-1.5
							c0-0.7,0.3-1.4,0.8-1.9l3.1-2.6l0.9-0.8c0.5-0.4,1.1-0.6,1.7-0.6c0.6,0.1,1.2,0.4,1.6,0.9c0.8,1,0.7,2.5-0.3,3.4c0,0,0,0,0,0
							l-2.4,2l-1.6,1.4C43.1,61.2,42.5,61.4,42,61.4z M45.9,53.9c-0.4,0-0.7,0.1-1,0.4L44,55c0,0,0,0,0,0l-3.1,2.6
							c-0.4,0.3-0.6,0.8-0.6,1.3c0,0.4,0.1,0.8,0.4,1.1c0.3,0.3,0.7,0.6,1.1,0.6c0.4,0,0.8-0.1,1.2-0.4l1.6-1.4c0,0,0,0,0,0l2.4-2
							c0.7-0.6,0.8-1.7,0.2-2.4c-0.3-0.3-0.7-0.6-1.1-0.6C46,53.9,46,53.9,45.9,53.9z M43.8,54.8L43.8,54.8L43.8,54.8z"/>
					</g>
				</g>
				<g id="XMLID_10_">
					<g id="XMLID_11_">
						<path id="XMLID_751_" fill="#FFFFFF" d="M39.7,53l1.6-1.4c0.8-0.7,2.1-0.6,2.8,0.2c0.3,0.4,0.5,0.8,0.5,1.3
							c0,0.6-0.2,1.2-0.7,1.6l-3.1,2.6l-0.9,0.8c-0.8,0.7-2.1,0.6-2.8-0.2c-0.7-0.9-0.6-2.2,0.2-2.9L39.7,53z"/>
						<path id="XMLID_12_" fill="#003887" d="M38.6,59c-0.1,0-0.1,0-0.2,0c-0.6-0.1-1.2-0.4-1.6-0.9c-0.8-1-0.7-2.5,0.3-3.4
							c0,0,0,0,0,0l2.4-2l1.6-1.4c0.5-0.4,1.1-0.6,1.7-0.6c0.6,0.1,1.2,0.4,1.6,0.9c0.3,0.4,0.5,1,0.6,1.5c0,0.7-0.3,1.4-0.8,1.9
							l-3.1,2.6l-0.9,0.8C39.6,58.8,39.1,59,38.6,59z M37.5,55.3c-0.7,0.6-0.8,1.7-0.2,2.4c0.3,0.3,0.7,0.6,1.1,0.6
							c0.4,0,0.8-0.1,1.2-0.4l0.9-0.8l3.1-2.6c0.4-0.3,0.6-0.8,0.6-1.3c0-0.4-0.1-0.8-0.4-1.1c-0.3-0.3-0.7-0.6-1.1-0.6
							c-0.4,0-0.8,0.1-1.2,0.4l-1.6,1.4c0,0,0,0,0,0L37.5,55.3z M39.7,53L39.7,53L39.7,53z"/>
					</g>
				</g>
				<g id="XMLID_9_">
					<path id="XMLID_747_" fill="#FFFFFF" d="M39.7,53l-2.4,2L39.7,53z"/>
					<path id="XMLID_746_" fill="#003887" d="M37.3,55.3c-0.1,0-0.2,0-0.3-0.1c-0.1-0.2-0.1-0.4,0.1-0.5l2.4-2
						c0.2-0.1,0.4-0.1,0.5,0.1c0.1,0.2,0.1,0.4-0.1,0.5l-2.4,2C37.4,55.3,37.3,55.3,37.3,55.3z"/>
				</g>
			</g>
			<g id="XMLID_6_">
				<path id="XMLID_745_" fill="#FFCE3B" d="M72.6,47.8l-5.5,3.2c-0.7,0.4-1.5,0.1-1.9-0.6l-6.9-11.9c-0.4-0.7-0.2-1.6,0.5-2
					l5.5-3.4L72.6,47.8z"/>
				<path id="XMLID_7_" fill="#003887" d="M66.5,51.5c-0.6,0-1.2-0.3-1.6-0.9L58,38.7c-0.2-0.4-0.3-0.9-0.2-1.4
					c0.1-0.5,0.4-0.9,0.8-1.1l5.5-3.4c0.1-0.1,0.2-0.1,0.3,0c0.1,0,0.2,0.1,0.2,0.2l8.3,14.7c0.1,0.2,0,0.4-0.1,0.5l-5.5,3.2
					C67.1,51.4,66.8,51.5,66.5,51.5z M64.2,33.6L59,36.9c0,0,0,0,0,0c-0.2,0.1-0.4,0.4-0.5,0.6c-0.1,0.3,0,0.6,0.1,0.8l6.9,11.9
					c0.3,0.5,0.9,0.7,1.4,0.4l5.2-3L64.2,33.6z"/>
			</g>
		</g>
	</g>
</g>
</svg>
