<?xml version="1.0" encoding="utf-8"?>
<!-- Generator: Adobe Illustrator 19.0.0, SVG Export Plug-In . SVG Version: 6.00 Build 0)  -->
<svg version="1.1" id="Layer_1" xmlns="http://www.w3.org/2000/svg" xmlns:xlink="http://www.w3.org/1999/xlink" x="0px" y="0px"
	 viewBox="0 0 96 96" enable-background="new 0 0 96 96" xml:space="preserve">
<g id="XMLID_230_">
	<g id="XMLID_321_">
		<g id="XMLID_323_">
			<circle id="XMLID_329_" opacity="0" fill="#FFFFFF" cx="48.4" cy="50.6" r="41.7"/>
			<circle id="XMLID_551_" opacity="3.398058e-003" fill="#FEFEFE" cx="48.4" cy="50.6" r="41.6"/>
			<circle id="XMLID_550_" opacity="6.796116e-003" fill="#FDFDFD" cx="48.4" cy="50.6" r="41.5"/>
			<circle id="XMLID_549_" opacity="1.019417e-002" fill="#FCFCFD" cx="48.4" cy="50.6" r="41.4"/>
			<circle id="XMLID_548_" opacity="1.359223e-002" fill="#FBFBFC" cx="48.4" cy="50.6" r="41.4"/>
			<circle id="XMLID_547_" opacity="1.699029e-002" fill="#FAFAFB" cx="48.4" cy="50.5" r="41.3"/>
			<circle id="XMLID_546_" opacity="2.038835e-002" fill="#F9FAFA" cx="48.4" cy="50.5" r="41.2"/>
			<circle id="XMLID_545_" opacity="2.378641e-002" fill="#F8F9F9" cx="48.4" cy="50.5" r="41.1"/>
			<circle id="XMLID_544_" opacity="2.718447e-002" fill="#F7F8F9" cx="48.4" cy="50.5" r="41"/>
			<circle id="XMLID_543_" opacity="3.058252e-002" fill="#F6F7F8" cx="48.4" cy="50.5" r="41"/>
			<circle id="XMLID_542_" opacity="3.398058e-002" fill="#F5F6F7" cx="48.4" cy="50.5" r="40.9"/>
			<circle id="XMLID_541_" opacity="3.737864e-002" fill="#F4F5F6" cx="48.4" cy="50.5" r="40.8"/>
			<circle id="XMLID_540_" opacity="4.077670e-002" fill="#F3F4F5" cx="48.4" cy="50.5" r="40.7"/>
			<circle id="XMLID_539_" opacity="4.417476e-002" fill="#F2F3F5" cx="48.4" cy="50.5" r="40.7"/>
			<circle id="XMLID_538_" opacity="4.757281e-002" fill="#F1F2F4" cx="48.4" cy="50.4" r="40.6"/>
			<circle id="XMLID_537_" opacity="5.097087e-002" fill="#F0F1F3" cx="48.4" cy="50.4" r="40.5"/>
			<circle id="XMLID_536_" opacity="5.436893e-002" fill="#EFF1F2" cx="48.4" cy="50.4" r="40.4"/>
			<circle id="XMLID_535_" opacity="5.776699e-002" fill="#EEF0F1" cx="48.4" cy="50.4" r="40.4"/>
			<circle id="XMLID_534_" opacity="6.116505e-002" fill="#EDEFF0" cx="48.4" cy="50.4" r="40.3"/>
			<circle id="XMLID_533_" opacity="6.456311e-002" fill="#ECEEF0" cx="48.4" cy="50.4" r="40.2"/>
			<circle id="XMLID_532_" opacity="6.796116e-002" fill="#EBEDEF" cx="48.4" cy="50.4" r="40.1"/>
			<circle id="XMLID_531_" opacity="7.135922e-002" fill="#EAECEE" cx="48.4" cy="50.4" r="40"/>
			<circle id="XMLID_530_" opacity="7.475728e-002" fill="#E9EBED" cx="48.4" cy="50.4" r="40"/>
			<circle id="XMLID_529_" opacity="7.815534e-002" fill="#E8EAEC" cx="48.4" cy="50.3" r="39.9"/>
			<circle id="XMLID_528_" opacity="8.155340e-002" fill="#E7E9EC" cx="48.4" cy="50.3" r="39.8"/>
			<circle id="XMLID_527_" opacity="8.495145e-002" fill="#E6E8EB" cx="48.4" cy="50.3" r="39.7"/>
			<circle id="XMLID_526_" opacity="8.834951e-002" fill="#E5E8EA" cx="48.4" cy="50.3" r="39.7"/>
			<circle id="XMLID_525_" opacity="9.174757e-002" fill="#E4E7E9" cx="48.4" cy="50.3" r="39.6"/>
			<circle id="XMLID_524_" opacity="9.514563e-002" fill="#E3E6E8" cx="48.4" cy="50.3" r="39.5"/>
			<circle id="XMLID_523_" opacity="9.854369e-002" fill="#E2E5E8" cx="48.4" cy="50.3" r="39.4"/>
			<circle id="XMLID_522_" opacity="0.1019" fill="#E1E4E7" cx="48.4" cy="50.3" r="39.4"/>
			<circle id="XMLID_521_" opacity="0.1053" fill="#E0E3E6" cx="48.4" cy="50.3" r="39.3"/>
			<circle id="XMLID_520_" opacity="0.1087" fill="#DFE2E5" cx="48.4" cy="50.2" r="39.2"/>
			<circle id="XMLID_519_" opacity="0.1121" fill="#DEE1E4" cx="48.4" cy="50.2" r="39.1"/>
			<circle id="XMLID_518_" opacity="0.1155" fill="#DDE0E4" cx="48.4" cy="50.2" r="39"/>
			<circle id="XMLID_505_" opacity="0.1189" fill="#DCDFE3" cx="48.4" cy="50.2" r="39"/>
			<circle id="XMLID_504_" opacity="0.1223" fill="#DBDEE2" cx="48.4" cy="50.2" r="38.9"/>
			<circle id="XMLID_503_" opacity="0.1257" fill="#DADEE1" cx="48.4" cy="50.2" r="38.8"/>
			<circle id="XMLID_497_" opacity="0.1291" fill="#D9DDE0" cx="48.4" cy="50.2" r="38.7"/>
			<circle id="XMLID_496_" opacity="0.1325" fill="#D8DCE0" cx="48.4" cy="50.2" r="38.7"/>
			<circle id="XMLID_495_" opacity="0.1359" fill="#D7DBDF" cx="48.4" cy="50.2" r="38.6"/>
			<circle id="XMLID_494_" opacity="0.1393" fill="#D6DADE" cx="48.4" cy="50.1" r="38.5"/>
			<circle id="XMLID_493_" opacity="0.1427" fill="#D5D9DD" cx="48.4" cy="50.1" r="38.4"/>
			<circle id="XMLID_492_" opacity="0.1461" fill="#D4D8DC" cx="48.4" cy="50.1" r="38.4"/>
			<circle id="XMLID_491_" opacity="0.1495" fill="#D3D7DC" cx="48.4" cy="50.1" r="38.3"/>
			<circle id="XMLID_490_" opacity="0.1529" fill="#D2D6DB" cx="48.4" cy="50.1" r="38.2"/>
			<circle id="XMLID_489_" opacity="0.1563" fill="#D1D5DA" cx="48.4" cy="50.1" r="38.1"/>
			<circle id="XMLID_488_" opacity="0.1597" fill="#D0D5D9" cx="48.4" cy="50.1" r="38"/>
			<circle id="XMLID_487_" opacity="0.1631" fill="#CFD4D8" cx="48.4" cy="50.1" r="38"/>
			<circle id="XMLID_486_" opacity="0.1665" fill="#CED3D8" cx="48.4" cy="50.1" r="37.9"/>
			<circle id="XMLID_485_" opacity="0.1699" fill="#CDD2D7" cx="48.4" cy="50" r="37.8"/>
			<circle id="XMLID_484_" opacity="0.1733" fill="#CCD1D6" cx="48.4" cy="50" r="37.7"/>
			<circle id="XMLID_483_" opacity="0.1767" fill="#CBD0D5" cx="48.4" cy="50" r="37.7"/>
			<circle id="XMLID_482_" opacity="0.1801" fill="#CACFD4" cx="48.4" cy="50" r="37.6"/>
			<circle id="XMLID_481_" opacity="0.1835" fill="#C9CED3" cx="48.4" cy="50" r="37.5"/>
			<circle id="XMLID_480_" opacity="0.1869" fill="#C8CDD3" cx="48.4" cy="50" r="37.4"/>
			<circle id="XMLID_479_" opacity="0.1903" fill="#C7CCD2" cx="48.4" cy="50" r="37.4"/>
			<circle id="XMLID_478_" opacity="0.1937" fill="#C6CCD1" cx="48.4" cy="50" r="37.3"/>
			<circle id="XMLID_477_" opacity="0.1971" fill="#C5CBD0" cx="48.4" cy="50" r="37.2"/>
			<circle id="XMLID_476_" opacity="0.2005" fill="#C4CACF" cx="48.4" cy="49.9" r="37.1"/>
			<circle id="XMLID_475_" opacity="0.2039" fill="#C3C9CF" cx="48.4" cy="49.9" r="37"/>
			<circle id="XMLID_474_" opacity="0.2073" fill="#C2C8CE" cx="48.4" cy="49.9" r="37"/>
			<circle id="XMLID_473_" opacity="0.2107" fill="#C1C7CD" cx="48.4" cy="49.9" r="36.9"/>
			<circle id="XMLID_472_" opacity="0.2141" fill="#C0C6CC" cx="48.4" cy="49.9" r="36.8"/>
			<circle id="XMLID_471_" opacity="0.2175" fill="#BFC5CB" cx="48.4" cy="49.9" r="36.7"/>
			<circle id="XMLID_470_" opacity="0.2209" fill="#BEC4CB" cx="48.4" cy="49.9" r="36.7"/>
			<circle id="XMLID_469_" opacity="0.2243" fill="#BDC3CA" cx="48.4" cy="49.9" r="36.6"/>
			<circle id="XMLID_468_" opacity="0.2277" fill="#BCC3C9" cx="48.4" cy="49.9" r="36.5"/>
			<circle id="XMLID_467_" opacity="0.2311" fill="#BBC2C8" cx="48.4" cy="49.8" r="36.4"/>
			<circle id="XMLID_466_" opacity="0.2345" fill="#BAC1C7" cx="48.4" cy="49.8" r="36.4"/>
			<circle id="XMLID_465_" opacity="0.2379" fill="#B9C0C7" cx="48.4" cy="49.8" r="36.3"/>
			<circle id="XMLID_464_" opacity="0.2413" fill="#B8BFC6" cx="48.4" cy="49.8" r="36.2"/>
			<circle id="XMLID_463_" opacity="0.2447" fill="#B7BEC5" cx="48.4" cy="49.8" r="36.1"/>
			<circle id="XMLID_462_" opacity="0.2481" fill="#B6BDC4" cx="48.4" cy="49.8" r="36"/>
			<circle id="XMLID_461_" opacity="0.2515" fill="#B5BCC3" cx="48.4" cy="49.8" r="36"/>
			<circle id="XMLID_460_" opacity="0.2549" fill="#B4BBC3" cx="48.4" cy="49.8" r="35.9"/>
			<circle id="XMLID_459_" opacity="0.2583" fill="#B3BAC2" cx="48.4" cy="49.8" r="35.8"/>
			<circle id="XMLID_458_" opacity="0.2617" fill="#B2B9C1" cx="48.4" cy="49.7" r="35.7"/>
			<circle id="XMLID_457_" opacity="0.265" fill="#B1B9C0" cx="48.4" cy="49.7" r="35.7"/>
			<circle id="XMLID_456_" opacity="0.2684" fill="#B0B8BF" cx="48.4" cy="49.7" r="35.6"/>
			<circle id="XMLID_455_" opacity="0.2718" fill="#AFB7BF" cx="48.4" cy="49.7" r="35.5"/>
			<circle id="XMLID_454_" opacity="0.2752" fill="#AEB6BE" cx="48.4" cy="49.7" r="35.4"/>
			<circle id="XMLID_453_" opacity="0.2786" fill="#ADB5BD" cx="48.4" cy="49.7" r="35.4"/>
			<circle id="XMLID_452_" opacity="0.282" fill="#ACB4BC" cx="48.4" cy="49.7" r="35.3"/>
			<circle id="XMLID_451_" opacity="0.2854" fill="#ABB3BB" cx="48.4" cy="49.7" r="35.2"/>
			<circle id="XMLID_450_" opacity="0.2888" fill="#AAB2BB" cx="48.4" cy="49.7" r="35.1"/>
			<circle id="XMLID_449_" opacity="0.2922" fill="#A9B1BA" cx="48.4" cy="49.6" r="35"/>
			<circle id="XMLID_448_" opacity="0.2956" fill="#A8B0B9" cx="48.4" cy="49.6" r="35"/>
			<circle id="XMLID_447_" opacity="0.299" fill="#A7B0B8" cx="48.4" cy="49.6" r="34.9"/>
			<circle id="XMLID_446_" opacity="0.3024" fill="#A6AFB7" cx="48.4" cy="49.6" r="34.8"/>
			<circle id="XMLID_445_" opacity="0.3058" fill="#A5AEB6" cx="48.4" cy="49.6" r="34.7"/>
			<circle id="XMLID_444_" opacity="0.3092" fill="#A4ADB6" cx="48.4" cy="49.6" r="34.7"/>
			<circle id="XMLID_443_" opacity="0.3126" fill="#A3ACB5" cx="48.4" cy="49.6" r="34.6"/>
			<circle id="XMLID_442_" opacity="0.316" fill="#A2ABB4" cx="48.4" cy="49.6" r="34.5"/>
			<circle id="XMLID_441_" opacity="0.3194" fill="#A1AAB3" cx="48.4" cy="49.6" r="34.4"/>
			<circle id="XMLID_440_" opacity="0.3228" fill="#A0A9B2" cx="48.4" cy="49.5" r="34.3"/>
			<circle id="XMLID_439_" opacity="0.3262" fill="#9FA8B2" cx="48.4" cy="49.5" r="34.3"/>
			<circle id="XMLID_438_" opacity="0.3296" fill="#9EA7B1" cx="48.4" cy="49.5" r="34.2"/>
			<circle id="XMLID_437_" opacity="0.333" fill="#9DA7B0" cx="48.4" cy="49.5" r="34.1"/>
			<circle id="XMLID_436_" opacity="0.3364" fill="#9CA6AF" cx="48.4" cy="49.5" r="34"/>
			<circle id="XMLID_435_" opacity="0.3398" fill="#9BA5AE" cx="48.4" cy="49.5" r="34"/>
			<circle id="XMLID_434_" opacity="0.3432" fill="#9AA4AE" cx="48.4" cy="49.5" r="33.9"/>
			<circle id="XMLID_433_" opacity="0.3466" fill="#99A3AD" cx="48.4" cy="49.5" r="33.8"/>
			<circle id="XMLID_432_" opacity="0.35" fill="#98A2AC" cx="48.4" cy="49.5" r="33.7"/>
			<circle id="XMLID_431_" opacity="0.3534" fill="#97A1AB" cx="48.4" cy="49.4" r="33.7"/>
			<circle id="XMLID_430_" opacity="0.3568" fill="#96A0AA" cx="48.4" cy="49.4" r="33.6"/>
			<circle id="XMLID_429_" opacity="0.3602" fill="#959FAA" cx="48.4" cy="49.4" r="33.5"/>
			<circle id="XMLID_428_" opacity="0.3636" fill="#949EA9" cx="48.4" cy="49.4" r="33.4"/>
			<circle id="XMLID_427_" opacity="0.367" fill="#939DA8" cx="48.4" cy="49.4" r="33.3"/>
			<circle id="XMLID_426_" opacity="0.3704" fill="#929DA7" cx="48.4" cy="49.4" r="33.3"/>
			<circle id="XMLID_425_" opacity="0.3738" fill="#919CA6" cx="48.4" cy="49.4" r="33.2"/>
			<circle id="XMLID_424_" opacity="0.3772" fill="#909BA6" cx="48.4" cy="49.4" r="33.1"/>
			<circle id="XMLID_423_" opacity="0.3806" fill="#8F9AA5" cx="48.4" cy="49.4" r="33"/>
			<circle id="XMLID_422_" opacity="0.384" fill="#8E99A4" cx="48.4" cy="49.3" r="33"/>
			<circle id="XMLID_421_" opacity="0.3874" fill="#8D98A3" cx="48.4" cy="49.3" r="32.9"/>
			<circle id="XMLID_420_" opacity="0.3908" fill="#8C97A2" cx="48.4" cy="49.3" r="32.8"/>
			<circle id="XMLID_419_" opacity="0.3942" fill="#8B96A2" cx="48.4" cy="49.3" r="32.7"/>
			<circle id="XMLID_418_" opacity="0.3976" fill="#8A95A1" cx="48.4" cy="49.3" r="32.7"/>
			<circle id="XMLID_417_" opacity="0.401" fill="#8994A0" cx="48.4" cy="49.3" r="32.6"/>
			<circle id="XMLID_416_" opacity="0.4044" fill="#88949F" cx="48.4" cy="49.3" r="32.5"/>
			<circle id="XMLID_415_" opacity="0.4078" fill="#87939E" cx="48.4" cy="49.3" r="32.4"/>
			<circle id="XMLID_414_" opacity="0.4112" fill="#86929D" cx="48.4" cy="49.3" r="32.3"/>
			<circle id="XMLID_413_" opacity="0.4146" fill="#85919D" cx="48.4" cy="49.2" r="32.3"/>
			<circle id="XMLID_412_" opacity="0.418" fill="#84909C" cx="48.4" cy="49.2" r="32.2"/>
			<circle id="XMLID_411_" opacity="0.4214" fill="#838F9B" cx="48.4" cy="49.2" r="32.1"/>
			<circle id="XMLID_410_" opacity="0.4248" fill="#828E9A" cx="48.4" cy="49.2" r="32"/>
			<circle id="XMLID_409_" opacity="0.4282" fill="#818D99" cx="48.4" cy="49.2" r="32"/>
			<circle id="XMLID_408_" opacity="0.4316" fill="#808C99" cx="48.4" cy="49.2" r="31.9"/>
			<circle id="XMLID_407_" opacity="0.435" fill="#7F8B98" cx="48.4" cy="49.2" r="31.8"/>
			<circle id="XMLID_406_" opacity="0.4383" fill="#7E8B97" cx="48.4" cy="49.2" r="31.7"/>
			<circle id="XMLID_405_" opacity="0.4417" fill="#7D8A96" cx="48.4" cy="49.2" r="31.7"/>
			<circle id="XMLID_404_" opacity="0.4451" fill="#7C8995" cx="48.4" cy="49.1" r="31.6"/>
			<circle id="XMLID_403_" opacity="0.4485" fill="#7B8895" cx="48.4" cy="49.1" r="31.5"/>
			<circle id="XMLID_402_" opacity="0.4519" fill="#7A8794" cx="48.4" cy="49.1" r="31.4"/>
			<circle id="XMLID_401_" opacity="0.4553" fill="#798693" cx="48.4" cy="49.1" r="31.3"/>
			<circle id="XMLID_400_" opacity="0.4587" fill="#788592" cx="48.4" cy="49.1" r="31.3"/>
			<circle id="XMLID_399_" opacity="0.4621" fill="#778491" cx="48.4" cy="49.1" r="31.2"/>
			<circle id="XMLID_398_" opacity="0.4655" fill="#768391" cx="48.4" cy="49.1" r="31.1"/>
			<circle id="XMLID_397_" opacity="0.4689" fill="#758290" cx="48.4" cy="49.1" r="31"/>
			<circle id="XMLID_396_" opacity="0.4723" fill="#74818F" cx="48.4" cy="49.1" r="31"/>
			<circle id="XMLID_395_" opacity="0.4757" fill="#73818E" cx="48.4" cy="49" r="30.9"/>
			<circle id="XMLID_394_" opacity="0.4791" fill="#72808D" cx="48.4" cy="49" r="30.8"/>
			<circle id="XMLID_393_" opacity="0.4825" fill="#717F8D" cx="48.4" cy="49" r="30.7"/>
			<circle id="XMLID_392_" opacity="0.4859" fill="#707E8C" cx="48.4" cy="49" r="30.7"/>
			<circle id="XMLID_391_" opacity="0.4893" fill="#6F7D8B" cx="48.4" cy="49" r="30.6"/>
			<circle id="XMLID_390_" opacity="0.4927" fill="#6E7C8A" cx="48.4" cy="49" r="30.5"/>
			<circle id="XMLID_389_" opacity="0.4961" fill="#6D7B89" cx="48.4" cy="49" r="30.4"/>
			<circle id="XMLID_388_" opacity="0.4995" fill="#6C7A89" cx="48.4" cy="49" r="30.3"/>
			<circle id="XMLID_387_" opacity="0.5029" fill="#6B7988" cx="48.4" cy="49" r="30.3"/>
			<circle id="XMLID_386_" opacity="0.5063" fill="#6A7887" cx="48.4" cy="48.9" r="30.2"/>
			<circle id="XMLID_385_" opacity="0.5097" fill="#697886" cx="48.4" cy="48.9" r="30.1"/>
			<circle id="XMLID_384_" opacity="0.5131" fill="#687785" cx="48.4" cy="48.9" r="30"/>
			<circle id="XMLID_383_" opacity="0.5165" fill="#677685" cx="48.4" cy="48.9" r="30"/>
			<circle id="XMLID_382_" opacity="0.5199" fill="#667584" cx="48.4" cy="48.9" r="29.9"/>
			<circle id="XMLID_381_" opacity="0.5233" fill="#657483" cx="48.4" cy="48.9" r="29.8"/>
			<circle id="XMLID_380_" opacity="0.5267" fill="#647382" cx="48.4" cy="48.9" r="29.7"/>
			<circle id="XMLID_379_" opacity="0.5301" fill="#637281" cx="48.4" cy="48.9" r="29.7"/>
			<circle id="XMLID_378_" opacity="0.5335" fill="#627180" cx="48.4" cy="48.9" r="29.6"/>
			<circle id="XMLID_377_" opacity="0.5369" fill="#617080" cx="48.4" cy="48.8" r="29.5"/>
			<circle id="XMLID_376_" opacity="0.5403" fill="#606F7F" cx="48.4" cy="48.8" r="29.4"/>
			<circle id="XMLID_375_" opacity="0.5437" fill="#5F6F7E" cx="48.4" cy="48.8" r="29.3"/>
			<circle id="XMLID_374_" opacity="0.5471" fill="#5E6E7D" cx="48.4" cy="48.8" r="29.3"/>
			<circle id="XMLID_373_" opacity="0.5505" fill="#5D6D7C" cx="48.4" cy="48.8" r="29.2"/>
			<circle id="XMLID_372_" opacity="0.5539" fill="#5C6C7C" cx="48.4" cy="48.8" r="29.1"/>
			<circle id="XMLID_371_" opacity="0.5573" fill="#5B6B7B" cx="48.4" cy="48.8" r="29"/>
			<circle id="XMLID_370_" opacity="0.5607" fill="#5A6A7A" cx="48.4" cy="48.8" r="29"/>
			<circle id="XMLID_369_" opacity="0.5641" fill="#596979" cx="48.4" cy="48.8" r="28.9"/>
			<circle id="XMLID_368_" opacity="0.5675" fill="#586878" cx="48.4" cy="48.7" r="28.8"/>
			<circle id="XMLID_367_" opacity="0.5709" fill="#576778" cx="48.4" cy="48.7" r="28.7"/>
			<circle id="XMLID_366_" opacity="0.5743" fill="#566677" cx="48.4" cy="48.7" r="28.7"/>
			<circle id="XMLID_365_" opacity="0.5777" fill="#556676" cx="48.4" cy="48.7" r="28.6"/>
			<circle id="XMLID_364_" opacity="0.5811" fill="#546575" cx="48.4" cy="48.7" r="28.5"/>
			<circle id="XMLID_363_" opacity="0.5845" fill="#536474" cx="48.4" cy="48.7" r="28.4"/>
			<circle id="XMLID_362_" opacity="0.5879" fill="#526374" cx="48.4" cy="48.7" r="28.3"/>
			<circle id="XMLID_361_" opacity="0.5913" fill="#516273" cx="48.4" cy="48.7" r="28.3"/>
			<circle id="XMLID_360_" opacity="0.5947" fill="#506172" cx="48.4" cy="48.7" r="28.2"/>
			<circle id="XMLID_359_" opacity="0.5981" fill="#4F6071" cx="48.4" cy="48.6" r="28.1"/>
			<circle id="XMLID_358_" opacity="0.6015" fill="#4E5F70" cx="48.4" cy="48.6" r="28"/>
			<circle id="XMLID_357_" opacity="0.6049" fill="#4D5E70" cx="48.4" cy="48.6" r="28"/>
			<circle id="XMLID_356_" opacity="0.6083" fill="#4C5D6F" cx="48.4" cy="48.6" r="27.9"/>
			<circle id="XMLID_355_" opacity="0.6117" fill="#4B5C6E" cx="48.4" cy="48.6" r="27.8"/>
			<circle id="XMLID_354_" opacity="0.615" fill="#4A5C6D" cx="48.4" cy="48.6" r="27.7"/>
			<circle id="XMLID_353_" opacity="0.6184" fill="#495B6C" cx="48.4" cy="48.6" r="27.7"/>
			<circle id="XMLID_352_" opacity="0.6218" fill="#485A6C" cx="48.4" cy="48.6" r="27.6"/>
			<circle id="XMLID_351_" opacity="0.6252" fill="#47596B" cx="48.4" cy="48.6" r="27.5"/>
			<circle id="XMLID_350_" opacity="0.6286" fill="#46586A" cx="48.4" cy="48.5" r="27.4"/>
			<circle id="XMLID_349_" opacity="0.632" fill="#455769" cx="48.4" cy="48.5" r="27.3"/>
			<circle id="XMLID_348_" opacity="0.6354" fill="#445668" cx="48.4" cy="48.5" r="27.3"/>
			<circle id="XMLID_347_" opacity="0.6388" fill="#435568" cx="48.4" cy="48.5" r="27.2"/>
			<circle id="XMLID_346_" opacity="0.6422" fill="#425467" cx="48.4" cy="48.5" r="27.1"/>
			<circle id="XMLID_345_" opacity="0.6456" fill="#415366" cx="48.4" cy="48.5" r="27"/>
			<circle id="XMLID_344_" opacity="0.649" fill="#405365" cx="48.4" cy="48.5" r="27"/>
			<circle id="XMLID_343_" opacity="0.6524" fill="#3F5264" cx="48.4" cy="48.5" r="26.9"/>
			<circle id="XMLID_342_" opacity="0.6558" fill="#3E5163" cx="48.4" cy="48.5" r="26.8"/>
			<circle id="XMLID_341_" opacity="0.6592" fill="#3D5063" cx="48.4" cy="48.4" r="26.7"/>
			<circle id="XMLID_340_" opacity="0.6626" fill="#3C4F62" cx="48.4" cy="48.4" r="26.7"/>
			<circle id="XMLID_339_" opacity="0.666" fill="#3B4E61" cx="48.4" cy="48.4" r="26.6"/>
			<circle id="XMLID_338_" opacity="0.6694" fill="#3A4D60" cx="48.4" cy="48.4" r="26.5"/>
			<circle id="XMLID_337_" opacity="0.6728" fill="#394C5F" cx="48.4" cy="48.4" r="26.4"/>
			<circle id="XMLID_336_" opacity="0.6762" fill="#384B5F" cx="48.4" cy="48.4" r="26.3"/>
			<circle id="XMLID_335_" opacity="0.6796" fill="#374A5E" cx="48.4" cy="48.4" r="26.3"/>
			<circle id="XMLID_334_" opacity="0.683" fill="#364A5D" cx="48.4" cy="48.4" r="26.2"/>
			<circle id="XMLID_333_" opacity="0.6864" fill="#35495C" cx="48.4" cy="48.4" r="26.1"/>
			<circle id="XMLID_332_" opacity="0.6898" fill="#34485B" cx="48.4" cy="48.3" r="26"/>
			<circle id="XMLID_331_" opacity="0.6932" fill="#33475B" cx="48.4" cy="48.3" r="26"/>
			<circle id="XMLID_330_" opacity="0.6966" fill="#32465A" cx="48.4" cy="48.3" r="25.9"/>
			<circle id="XMLID_328_" opacity="0.7" fill="#314559" cx="48.4" cy="48.3" r="25.8"/>
		</g>
		
			<linearGradient id="XMLID_5_" gradientUnits="userSpaceOnUse" x1="6680.8926" y1="-384.1933" x2="6753.002" y2="-384.1933" gradientTransform="matrix(0 1 -1 0 -334.2423 -6674.2422)">
			<stop  offset="0" style="stop-color:#FFFFFF"/>
			<stop  offset="0.2837" style="stop-color:#FAFBFC"/>
			<stop  offset="0.5978" style="stop-color:#EDEFF2"/>
			<stop  offset="0.9252" style="stop-color:#D7DBE2"/>
			<stop  offset="1" style="stop-color:#D1D5DE"/>
		</linearGradient>
		<circle id="XMLID_322_" fill="url(#XMLID_5_)" cx="50" cy="42.7" r="36.1"/>
	</g>
	<g id="XMLID_235_">
		<polygon id="XMLID_320_" fill="#FFFFFF" points="50.1,51.7 66,51.7 66,29 63.7,26.5 53.4,26.5 		"/>
		<g id="XMLID_318_">
			<path id="XMLID_319_" fill="#522C70" d="M66,52.2H50.1c-0.3,0-0.5-0.2-0.5-0.5c0-0.3,0.2-0.5,0.5-0.5h15.4V29.2L63.5,27h-10
				c-0.3,0-0.5-0.2-0.5-0.5s0.2-0.5,0.5-0.5h10.2c0.1,0,0.2,0.1,0.3,0.1l2.4,2.4c0.1,0.1,0.1,0.2,0.1,0.3v22.8
				C66.5,52,66.3,52.2,66,52.2z"/>
		</g>
		<path id="XMLID_317_" fill="#FFFFFF" d="M41,46.1c0.7-0.7,1.3-1.6,1.5-2.3l8.9-1.6c0,1.4,0.5,2.9,1.4,4l-5.8,3.9L41,46.1z"/>
		<g id="XMLID_313_">
			<path id="XMLID_314_" fill="#522C70" d="M46.9,50.7c-0.1,0-0.2,0-0.3-0.1l-6-4.1c-0.1-0.1-0.2-0.2-0.2-0.3c0-0.1,0-0.3,0.1-0.4
				c0.6-0.7,1.2-1.6,1.4-2.1c0.1-0.2,0.2-0.3,0.4-0.3l8.9-1.6c0.1,0,0.3,0,0.4,0.1c0.1,0.1,0.2,0.2,0.2,0.4c0,1.3,0.5,2.6,1.3,3.7
				c0.1,0.1,0.1,0.2,0.1,0.4c0,0.1-0.1,0.2-0.2,0.3l-5.8,3.9C47.1,50.6,47,50.7,46.9,50.7z M41.7,46l5.3,3.6l5.2-3.5
				c-0.7-1-1.1-2.1-1.2-3.3l-8.1,1.4C42.6,44.8,42.2,45.4,41.7,46z"/>
		</g>
		<g id="XMLID_311_">
			<path id="XMLID_312_" fill="#522C70" d="M46.9,50.7c-0.1,0-0.2,0-0.3-0.1l-5.9-4c-0.2-0.1-0.3-0.4-0.1-0.7
				c0.1-0.2,0.4-0.3,0.7-0.1l5.7,3.8l5.3-3.5c0.2-0.1,0.5-0.1,0.7,0.1c0.1,0.2,0.1,0.5-0.1,0.7l-5.5,3.7
				C47.1,50.6,47,50.7,46.9,50.7z"/>
		</g>
		<path id="XMLID_310_" fill="#FFFFFF" d="M39.7,47.3c0.4-0.3,0.8-0.7,1.3-1.2l4.5,3.3l-2.1,1.7L39.7,47.3z"/>
		<g id="XMLID_308_">
			<path id="XMLID_309_" fill="#522C70" d="M43.3,51.6c-0.1,0-0.3-0.1-0.4-0.2c-0.2-0.2-0.1-0.5,0.1-0.7l1.6-1.3L41,46.8
				c-0.3,0.3-0.7,0.7-1.1,1c-0.2,0.1-0.5,0.1-0.7-0.1c-0.1-0.2-0.1-0.5,0.1-0.7c0.3-0.2,0.8-0.6,1.2-1.1c0.2-0.2,0.4-0.2,0.6-0.1
				l4.5,3.3c0.1,0.1,0.2,0.2,0.2,0.4c0,0.1-0.1,0.3-0.2,0.4l-2.1,1.7C43.5,51.5,43.4,51.6,43.3,51.6z"/>
		</g>
		<path id="XMLID_307_" fill="#FFFFFF" d="M52.8,46.3l-4.7,3.2l3.2,2.2l2.6-4.2l0.1-0.1C53.5,47.1,53.1,46.7,52.8,46.3L52.8,46.3z"
			/>
		<g id="XMLID_303_">
			<path id="XMLID_304_" fill="#522C70" d="M51.3,52.1c-0.1,0-0.2,0-0.3-0.1l-3.2-2.2c-0.1-0.1-0.2-0.2-0.2-0.4
				c0-0.2,0.1-0.3,0.2-0.4l4.7-3.2c0.2-0.1,0.5-0.1,0.6,0.1c0.3,0.4,0.7,0.8,1.1,1c0.1,0.1,0.2,0.2,0.2,0.3c0,0.1,0,0.3-0.1,0.4
				l-0.1,0.1l-2.6,4.1C51.6,52,51.5,52.1,51.3,52.1C51.3,52.1,51.3,52.1,51.3,52.1z M48.9,49.5l2.2,1.5l2.2-3.5
				c-0.2-0.2-0.5-0.4-0.7-0.6L48.9,49.5z"/>
		</g>
		<path id="XMLID_302_" fill="#FFCE3B" d="M38,34.1v-5c0-2,1.1-3.4,2.6-3.9h7.4l-8,9.7L38,34.1z"/>
		<g id="XMLID_300_">
			<path id="XMLID_301_" fill="#522C70" d="M40,35.3c-0.1,0-0.2,0-0.3-0.1c-0.2-0.2-0.2-0.5-0.1-0.7l7.4-8.9h-6.3
				c-1.4,0.5-2.2,1.8-2.2,3.4v5c0,0.3-0.2,0.5-0.5,0.5c-0.3,0-0.5-0.2-0.5-0.5v-5c0-2.1,1.2-3.8,2.9-4.3c0,0,0.1,0,0.1,0h7.4
				c0.2,0,0.3,0.1,0.4,0.3c0.1,0.2,0.1,0.4-0.1,0.5l-8,9.7C40.3,35.3,40.1,35.3,40,35.3z"/>
		</g>
		<path id="XMLID_299_" fill="#FFCE3B" d="M47.1,26.9h-3.6c-1.8,0-3.3-1.5-3.3-3.3H50c3,0,5.5,2.5,5.5,5.5v5L47.1,26.9z"/>
		<g id="XMLID_297_">
			<path id="XMLID_298_" fill="#522C70" d="M55.5,34.6c-0.3,0-0.5-0.2-0.5-0.5v-5c0-2.8-2.2-5-5-5h-9.3c0.2,1.3,1.4,2.3,2.8,2.3h3.6
				c0.3,0,0.5,0.2,0.5,0.5c0,0.3-0.2,0.5-0.5,0.5h-3.6c-2.1,0-3.7-1.7-3.7-3.7c0-0.3,0.2-0.5,0.5-0.5H50c3.3,0,6,2.7,6,6v5
				C56,34.4,55.8,34.6,55.5,34.6z"/>
		</g>
		<path id="XMLID_296_" fill="#FFFFFF" d="M40.1,33.1v-0.7c0-3,2.5-5.5,5.5-5.5h2.3c3,0,5.5,2.5,5.5,5.5v0.7c1.5,0,2.7,1.3,2.7,2.8
			c0,1.5-1.2,2.8-2.7,2.8v0.2c0,3.3-2.7,6-6,6h-1.3c-3.3,0-6-2.7-6-6v-0.2c-1.5,0-2.8-1.2-2.8-2.8C37.3,34.4,38.6,33.1,40.1,33.1
			L40.1,33.1z"/>
		<g id="XMLID_292_">
			<path id="XMLID_293_" fill="#522C70" d="M47.4,45.4h-1.3c-3.5,0-6.4-2.8-6.5-6.3c-1.6-0.2-2.8-1.6-2.8-3.2c0-1.6,1.2-3,2.8-3.2
				v-0.3c0-3.3,2.7-6,6-6h2.3c3.3,0,6,2.7,6,6v0.3c1.5,0.2,2.7,1.6,2.7,3.2c0,1.6-1.2,3-2.7,3.2C53.8,42.6,50.9,45.4,47.4,45.4z
				 M45.6,27.3c-2.8,0-5,2.3-5,5v0.7c0,0.3-0.2,0.5-0.5,0.5c-1.3,0-2.3,1-2.3,2.3c0,1.3,1,2.3,2.3,2.3c0.3,0,0.5,0.2,0.5,0.5v0.2
				c0,3.1,2.5,5.6,5.6,5.6h1.3c3.1,0,5.6-2.5,5.6-5.6v-0.2c0-0.3,0.2-0.5,0.5-0.5c1.3,0,2.3-1,2.3-2.3c0-1.3-1-2.3-2.3-2.3
				c-0.3,0-0.5-0.2-0.5-0.5v-0.7c0-2.8-2.3-5-5-5H45.6z"/>
		</g>
		<path id="XMLID_291_" fill="#5D9AF0" d="M63.5,57.1v-3.9c0-1.4-0.9-2.7-2.3-3.2l-0.6-0.2L55.2,48c-0.2-0.1-0.6-0.2-1-0.5l-1.6-1.4
			l-5.9,4l-5.9-4l-1.6,1.4c-0.4,0.2-0.8,0.4-1,0.5L33,49.9l-0.6,0.2c-1.4,0.5-2.3,1.7-2.3,3.2v3.9H63.5z"/>
		<g id="XMLID_289_">
			<path id="XMLID_290_" fill="#522C70" d="M63.5,57.6c-0.3,0-0.5-0.2-0.5-0.5v-3.9c0-1.2-0.8-2.3-2-2.7l-6-2.1
				c-0.2-0.1-0.6-0.2-1.1-0.5c0,0-0.1,0-0.1-0.1l-1.3-1.2l-5.6,3.8c-0.2,0.1-0.4,0.1-0.5,0L41,46.7l-1.3,1.2c0,0-0.1,0-0.1,0.1
				c-0.5,0.3-0.9,0.4-1.1,0.5l-6,2.1c-1.2,0.4-2,1.5-2,2.7v3.9c0,0.3-0.2,0.5-0.5,0.5c-0.3,0-0.5-0.2-0.5-0.5v-3.9
				c0-1.6,1-3.1,2.6-3.6l6-2.1c0.1,0,0.4-0.2,0.9-0.4l1.5-1.4c0.2-0.1,0.4-0.2,0.6,0l5.6,3.8l5.6-3.8c0.2-0.1,0.4-0.1,0.6,0l1.5,1.4
				c0.4,0.2,0.7,0.4,0.9,0.4l6,2.1c1.5,0.5,2.6,2,2.6,3.6v3.9C64,57.4,63.8,57.6,63.5,57.6z"/>
		</g>
		<polygon id="XMLID_288_" fill="#FFCE3B" points="36.9,47.5 36.9,57.3 40.1,57.3 40.1,47.5 		"/>
		<g id="XMLID_284_">
			<path id="XMLID_285_" fill="#522C70" d="M40.1,57.8h-3.2c-0.3,0-0.5-0.2-0.5-0.5v-9.8c0-0.1,0.1-0.2,0.1-0.3
				c0.1-0.1,0.2-0.1,0.3-0.1c0,0,0,0,0,0l3.2,0c0.3,0,0.5,0.2,0.5,0.5v9.8C40.6,57.6,40.4,57.8,40.1,57.8z M37.4,56.8h2.3V48l-2.3,0
				V56.8z"/>
		</g>
		<g id="XMLID_280_">
			<path id="XMLID_281_" fill="#522C70" d="M66.1,29.4h-2.4c-0.3,0-0.5-0.2-0.5-0.5l0-2.4c0-0.2,0.1-0.4,0.3-0.4
				c0.2-0.1,0.4,0,0.5,0.1l0,0l2.4,2.4c0.1,0.1,0.2,0.3,0.1,0.5C66.4,29.3,66.3,29.4,66.1,29.4z M64.1,28.5h0.8l-0.8-0.8L64.1,28.5z
				"/>
		</g>
		<g id="XMLID_241_">
			<g id="XMLID_266_">
				<g id="XMLID_267_">
					<g id="XMLID_268_">
						<g id="XMLID_277_">
							<polygon id="XMLID_279_" fill="#FFFFFF" points="66.2,54.6 67.6,55.8 58.9,63.4 50.2,55.8 51.5,54.7 							"/>
							<path id="XMLID_278_" fill="#003887" d="M58.9,63.6c0,0-0.1,0-0.1,0l-8.7-7.6c0,0-0.1-0.1-0.1-0.1c0-0.1,0-0.1,0.1-0.1
								l1.3-1.1c0.1-0.1,0.2-0.1,0.2,0c0.1,0.1,0.1,0.2,0,0.2l-1.2,1l8.4,7.4l8.4-7.4l-1.2-1c-0.1-0.1-0.1-0.2,0-0.2
								c0.1-0.1,0.2-0.1,0.2,0l1.4,1.1c0,0,0.1,0.1,0.1,0.1c0,0.1,0,0.1-0.1,0.1L59,63.5C59,63.5,58.9,63.6,58.9,63.6z"/>
						</g>
						<g id="XMLID_274_">
							<polygon id="XMLID_276_" fill="#FFFFFF" points="66.2,52.2 67.6,53.4 58.9,61 50.2,53.4 51.5,52.3 							"/>
							<path id="XMLID_275_" fill="#003887" d="M58.9,61.1c0,0-0.1,0-0.1,0l-8.7-7.6c0,0-0.1-0.1-0.1-0.1c0-0.1,0-0.1,0.1-0.1
								l1.3-1.1c0.1-0.1,0.2-0.1,0.2,0c0.1,0.1,0.1,0.2,0,0.2l-1.2,1l8.4,7.4l8.4-7.4l-1.2-1c-0.1-0.1-0.1-0.2,0-0.2
								c0.1-0.1,0.2-0.1,0.2,0l1.4,1.1c0,0,0.1,0.1,0.1,0.1c0,0.1,0,0.1-0.1,0.1L59,61.1C59,61.1,58.9,61.1,58.9,61.1z"/>
						</g>
						<g id="XMLID_269_">
							<polygon id="XMLID_273_" fill="#FFCE3B" points="58.9,58.7 51,51.8 58.9,45.1 66.8,51.8 							"/>
							<path id="XMLID_270_" fill="#003887" d="M58.9,58.8c0,0-0.1,0-0.1,0l-7.9-6.9c0,0-0.1-0.1-0.1-0.1c0-0.1,0-0.1,0.1-0.1
								l7.9-6.6c0.1-0.1,0.2-0.1,0.2,0l7.9,6.6c0,0,0.1,0.1,0.1,0.1c0,0.1,0,0.1-0.1,0.1L59,58.8C59,58.8,58.9,58.8,58.9,58.8z
								 M51.3,51.8l7.6,6.7l7.6-6.7l-7.6-6.4L51.3,51.8z"/>
						</g>
					</g>
				</g>
			</g>
			<g id="XMLID_244_">
				<g id="XMLID_261_">
					<circle id="XMLID_265_" fill="#FFFFFF" cx="58.8" cy="48.4" r="2.5"/>
					<path id="XMLID_262_" fill="#003887" d="M58.8,51.1c-1.5,0-2.7-1.2-2.7-2.7c0-1.5,1.2-2.7,2.7-2.7c1.5,0,2.7,1.2,2.7,2.7
						C61.5,49.9,60.3,51.1,58.8,51.1z M58.8,46c-1.3,0-2.4,1.1-2.4,2.4s1.1,2.4,2.4,2.4c1.3,0,2.4-1.1,2.4-2.4S60.1,46,58.8,46z"/>
				</g>
				<g id="XMLID_245_">
					<path id="XMLID_257_" fill="#5D9AF0" d="M54.1,49.4h0.7c0.1,0,0.2,0.1,0.2,0.1c0.1,0.2,0.2,0.4,0.3,0.6c0,0.1,0,0.2,0,0.2
						l-0.5,0.5c-0.1,0.1-0.1,0.4,0,0.5l1,1c0.1,0.1,0.4,0.1,0.5,0l0.5-0.5c0.1-0.1,0.2-0.1,0.2,0c0.2,0.1,0.4,0.2,0.6,0.3
						c0.1,0,0.1,0.1,0.1,0.2v0.7c0,0.2,0.2,0.4,0.4,0.4h1.4c0.2,0,0.4-0.2,0.4-0.4v-0.7c0-0.1,0.1-0.2,0.1-0.2
						c0.2-0.1,0.4-0.2,0.6-0.3c0.1,0,0.2,0,0.2,0l0.5,0.5c0.1,0.1,0.4,0.1,0.5,0l1-1c0.1-0.1,0.1-0.4,0-0.5l-0.5-0.5
						c-0.1-0.1-0.1-0.2,0-0.2c0.1-0.2,0.2-0.4,0.3-0.6c0-0.1,0.1-0.1,0.2-0.1h0.7c0.2,0,0.4-0.2,0.4-0.4v-1.4c0-0.2-0.2-0.4-0.4-0.4
						h-0.7c-0.1,0-0.2-0.1-0.2-0.1c-0.1-0.2-0.2-0.4-0.3-0.6c0-0.1,0-0.2,0-0.2l0.5-0.5c0.1-0.1,0.1-0.4,0-0.5l-1-1
						c-0.1-0.1-0.4-0.1-0.5,0l-0.5,0.5c-0.1,0.1-0.2,0.1-0.2,0c-0.2-0.1-0.4-0.2-0.6-0.3c-0.1,0-0.1-0.1-0.1-0.2v-0.7
						c0-0.2-0.2-0.4-0.4-0.4h-1.4c-0.2,0-0.4,0.2-0.4,0.4v0.7c0,0.1-0.1,0.2-0.1,0.2c-0.2,0.1-0.4,0.2-0.6,0.3c-0.1,0-0.2,0-0.2,0
						l-0.5-0.5c-0.1-0.1-0.4-0.1-0.5,0l-1,1c-0.1,0.1-0.1,0.4,0,0.5l0.5,0.5c0.1,0.1,0.1,0.2,0,0.2c-0.1,0.2-0.2,0.4-0.3,0.6
						c0,0.1-0.1,0.1-0.2,0.1h-0.7c-0.2,0-0.4,0.2-0.4,0.4v1.4C53.8,49.3,53.9,49.4,54.1,49.4z M56.9,48.4c0-1.1,0.9-2,2-2
						c1.1,0,2,0.9,2,2c0,1.1-0.9,2-2,2C57.7,50.3,56.9,49.5,56.9,48.4z"/>
					<path id="XMLID_246_" fill="#003887" d="M59.5,53.6h-1.4c-0.3,0-0.5-0.2-0.5-0.5v-0.7c0,0,0,0,0,0c-0.2-0.1-0.4-0.2-0.6-0.3
						c0,0,0,0,0,0l-0.5,0.5c-0.2,0.2-0.6,0.2-0.8,0l-1-1c-0.2-0.2-0.2-0.6,0-0.8l0.5-0.5c0,0,0,0,0,0c-0.1-0.2-0.2-0.4-0.3-0.6
						c0,0,0,0,0,0h-0.7c-0.3,0-0.5-0.2-0.5-0.5v-1.4c0-0.3,0.2-0.5,0.5-0.5h0.7c0,0,0,0,0,0c0.1-0.2,0.2-0.4,0.3-0.6c0,0,0,0,0,0
						l-0.5-0.5c-0.2-0.2-0.2-0.6,0-0.8l1-1c0.1-0.1,0.2-0.2,0.4-0.2c0.1,0,0.3,0.1,0.4,0.2l0.5,0.5c0,0,0,0,0,0
						c0.2-0.1,0.4-0.2,0.6-0.3c0,0,0,0,0,0v-0.7c0-0.3,0.2-0.5,0.5-0.5h1.4c0.3,0,0.5,0.2,0.5,0.5v0.7c0,0,0,0,0,0
						c0.2,0.1,0.4,0.2,0.6,0.3c0,0,0,0,0,0l0.5-0.5c0.1-0.1,0.2-0.2,0.4-0.2c0.1,0,0.3,0.1,0.4,0.2l1,1c0.2,0.2,0.2,0.6,0,0.8
						l-0.5,0.5c0,0,0,0,0,0c0.1,0.2,0.2,0.4,0.3,0.6c0,0,0,0,0,0h0.7c0.3,0,0.5,0.2,0.5,0.5v1.4c0,0.3-0.2,0.5-0.5,0.5h-0.7
						c0,0,0,0,0,0c-0.1,0.2-0.2,0.4-0.3,0.6c0,0,0,0,0,0l0.5,0.5c0.2,0.2,0.2,0.6,0,0.8l-1,1c-0.1,0.1-0.2,0.2-0.4,0.2
						c-0.1,0-0.3-0.1-0.4-0.2L60.7,52c0,0,0,0,0,0c-0.2,0.1-0.4,0.2-0.6,0.3c0,0,0,0,0,0v0.7C60.1,53.4,59.8,53.6,59.5,53.6z
						 M56.9,51.7c0.1,0,0.1,0,0.2,0c0.2,0.1,0.4,0.2,0.6,0.2c0.2,0,0.3,0.2,0.3,0.4v0.7c0,0.1,0.1,0.2,0.2,0.2h1.4
						c0.1,0,0.2-0.1,0.2-0.2v-0.7c0-0.2,0.1-0.3,0.3-0.4c0.2-0.1,0.4-0.1,0.6-0.2c0.1-0.1,0.3,0,0.4,0.1l0.5,0.5
						c0.1,0.1,0.2,0.1,0.3,0l1-1c0.1-0.1,0.1-0.2,0-0.3l-0.5-0.5c-0.1-0.1-0.1-0.3-0.1-0.4c0.1-0.2,0.2-0.4,0.2-0.6
						c0-0.2,0.2-0.3,0.4-0.3h0.7c0.1,0,0.2-0.1,0.2-0.2v-1.4c0-0.1-0.1-0.2-0.2-0.2h-0.7c-0.2,0-0.3-0.1-0.4-0.3
						c-0.1-0.2-0.1-0.4-0.2-0.6c-0.1-0.1,0-0.3,0.1-0.4l0.5-0.5c0.1-0.1,0.1-0.2,0-0.3l-1-1c-0.1-0.1-0.2-0.1-0.3,0L61,45
						c-0.1,0.1-0.3,0.1-0.4,0.1c-0.2-0.1-0.4-0.2-0.6-0.2c-0.2,0-0.3-0.2-0.3-0.4v-0.7c0-0.1-0.1-0.2-0.2-0.2h-1.4
						c-0.1,0-0.2,0.1-0.2,0.2v0.7c0,0.2-0.1,0.3-0.3,0.4c-0.2,0.1-0.4,0.1-0.6,0.2c-0.1,0.1-0.3,0-0.4-0.1l-0.5-0.5
						c-0.1-0.1-0.2-0.1-0.3,0l-1,1c-0.1,0.1-0.1,0.2,0,0.3l0.5,0.5c0.1,0.1,0.1,0.3,0.1,0.4c-0.1,0.2-0.2,0.4-0.2,0.6
						c0,0.2-0.2,0.3-0.4,0.3h-0.7c-0.1,0-0.2,0.1-0.2,0.2v1.4c0,0.1,0.1,0.2,0.2,0.2h0.7c0.2,0,0.3,0.1,0.4,0.3
						c0.1,0.2,0.1,0.4,0.2,0.6c0.1,0.1,0,0.3-0.1,0.4l-0.5,0.5c0,0-0.1,0.1-0.1,0.1c0,0,0,0.1,0.1,0.1l1,1c0.1,0.1,0.2,0.1,0.3,0
						l0.5-0.5C56.7,51.7,56.8,51.7,56.9,51.7z M58.8,50.5c-1.2,0-2.1-1-2.1-2.1c0-1.2,1-2.1,2.1-2.1c1.2,0,2.1,1,2.1,2.1
						C61,49.6,60,50.5,58.8,50.5z M58.8,46.6c-1,0-1.8,0.8-1.8,1.8c0,1,0.8,1.8,1.8,1.8s1.8-0.8,1.8-1.8
						C60.6,47.4,59.8,46.6,58.8,46.6z"/>
				</g>
			</g>
		</g>
		<rect id="XMLID_240_" x="57.4" y="31.9" fill="#522C70" width="7.1" height="1"/>
		<rect id="XMLID_238_" x="57.4" y="34.5" fill="#522C70" width="7.1" height="1"/>
		<rect id="XMLID_237_" x="57.3" y="37.1" fill="#522C70" width="7.1" height="1"/>
		<rect id="XMLID_236_" x="57.3" y="40.1" fill="#522C70" width="7.1" height="1"/>
	</g>
</g>
</svg>
