<?xml version="1.0" encoding="utf-8"?>
<!-- Generator: Adobe Illustrator 19.0.0, SVG Export Plug-In . SVG Version: 6.00 Build 0)  -->
<svg version="1.1" id="Layer_1" xmlns="http://www.w3.org/2000/svg" xmlns:xlink="http://www.w3.org/1999/xlink" x="0px" y="0px"
	 viewBox="0 0 96 96" enable-background="new 0 0 96 96" xml:space="preserve">
<g id="XMLID_558_">
	<g id="XMLID_1442_">
		<g id="XMLID_1446_">
			<circle id="XMLID_5_" opacity="0" fill="#FFFFFF" cx="48" cy="51.9" r="41.7"/>
			<circle id="XMLID_417_" opacity="3.398058e-003" fill="#FEFEFE" cx="48" cy="51.9" r="41.6"/>
			<circle id="XMLID_416_" opacity="6.796116e-003" fill="#FDFDFD" cx="48" cy="51.9" r="41.5"/>
			<circle id="XMLID_415_" opacity="1.019417e-002" fill="#FCFCFD" cx="48" cy="51.8" r="41.4"/>
			<circle id="XMLID_414_" opacity="1.359223e-002" fill="#FBFBFC" cx="48" cy="51.8" r="41.4"/>
			<circle id="XMLID_413_" opacity="1.699029e-002" fill="#FAFAFB" cx="48" cy="51.8" r="41.3"/>
			<circle id="XMLID_412_" opacity="2.038835e-002" fill="#F9FAFA" cx="48" cy="51.8" r="41.2"/>
			<circle id="XMLID_411_" opacity="2.378641e-002" fill="#F8F9F9" cx="48" cy="51.8" r="41.1"/>
			<circle id="XMLID_410_" opacity="2.718447e-002" fill="#F7F8F9" cx="48" cy="51.8" r="41"/>
			<circle id="XMLID_409_" opacity="3.058252e-002" fill="#F6F7F8" cx="48" cy="51.8" r="41"/>
			<circle id="XMLID_408_" opacity="3.398058e-002" fill="#F5F6F7" cx="48" cy="51.8" r="40.9"/>
			<circle id="XMLID_407_" opacity="3.737864e-002" fill="#F4F5F6" cx="48" cy="51.8" r="40.8"/>
			<circle id="XMLID_406_" opacity="4.077670e-002" fill="#F3F4F5" cx="48" cy="51.7" r="40.7"/>
			<circle id="XMLID_405_" opacity="4.417476e-002" fill="#F2F3F5" cx="48" cy="51.7" r="40.7"/>
			<circle id="XMLID_404_" opacity="4.757281e-002" fill="#F1F2F4" cx="48" cy="51.7" r="40.6"/>
			<circle id="XMLID_403_" opacity="5.097087e-002" fill="#F0F1F3" cx="48" cy="51.7" r="40.5"/>
			<circle id="XMLID_402_" opacity="5.436893e-002" fill="#EFF1F2" cx="48" cy="51.7" r="40.4"/>
			<circle id="XMLID_401_" opacity="5.776699e-002" fill="#EEF0F1" cx="48" cy="51.7" r="40.4"/>
			<circle id="XMLID_400_" opacity="6.116505e-002" fill="#EDEFF0" cx="48" cy="51.7" r="40.3"/>
			<circle id="XMLID_399_" opacity="6.456311e-002" fill="#ECEEF0" cx="48" cy="51.7" r="40.2"/>
			<circle id="XMLID_398_" opacity="6.796116e-002" fill="#EBEDEF" cx="48" cy="51.7" r="40.1"/>
			<circle id="XMLID_397_" opacity="7.135922e-002" fill="#EAECEE" cx="48" cy="51.6" r="40"/>
			<circle id="XMLID_396_" opacity="7.475728e-002" fill="#E9EBED" cx="48" cy="51.6" r="40"/>
			<circle id="XMLID_395_" opacity="7.815534e-002" fill="#E8EAEC" cx="48" cy="51.6" r="39.9"/>
			<circle id="XMLID_394_" opacity="8.155340e-002" fill="#E7E9EC" cx="48" cy="51.6" r="39.8"/>
			<circle id="XMLID_393_" opacity="8.495145e-002" fill="#E6E8EB" cx="48" cy="51.6" r="39.7"/>
			<circle id="XMLID_392_" opacity="8.834951e-002" fill="#E5E8EA" cx="48" cy="51.6" r="39.7"/>
			<circle id="XMLID_391_" opacity="9.174757e-002" fill="#E4E7E9" cx="48" cy="51.6" r="39.6"/>
			<circle id="XMLID_390_" opacity="9.514563e-002" fill="#E3E6E8" cx="48" cy="51.6" r="39.5"/>
			<circle id="XMLID_389_" opacity="9.854369e-002" fill="#E2E5E8" cx="48" cy="51.6" r="39.4"/>
			<circle id="XMLID_388_" opacity="0.1019" fill="#E1E4E7" cx="48" cy="51.5" r="39.4"/>
			<circle id="XMLID_387_" opacity="0.1053" fill="#E0E3E6" cx="48" cy="51.5" r="39.3"/>
			<circle id="XMLID_386_" opacity="0.1087" fill="#DFE2E5" cx="48" cy="51.5" r="39.2"/>
			<circle id="XMLID_385_" opacity="0.1121" fill="#DEE1E4" cx="48" cy="51.5" r="39.1"/>
			<circle id="XMLID_384_" opacity="0.1155" fill="#DDE0E4" cx="48" cy="51.5" r="39"/>
			<circle id="XMLID_383_" opacity="0.1189" fill="#DCDFE3" cx="48" cy="51.5" r="39"/>
			<circle id="XMLID_382_" opacity="0.1223" fill="#DBDEE2" cx="48" cy="51.5" r="38.9"/>
			<circle id="XMLID_381_" opacity="0.1257" fill="#DADEE1" cx="48" cy="51.5" r="38.8"/>
			<circle id="XMLID_380_" opacity="0.1291" fill="#D9DDE0" cx="48" cy="51.5" r="38.7"/>
			<circle id="XMLID_379_" opacity="0.1325" fill="#D8DCE0" cx="48" cy="51.4" r="38.7"/>
			<circle id="XMLID_378_" opacity="0.1359" fill="#D7DBDF" cx="48" cy="51.4" r="38.6"/>
			<circle id="XMLID_377_" opacity="0.1393" fill="#D6DADE" cx="48" cy="51.4" r="38.5"/>
			<circle id="XMLID_376_" opacity="0.1427" fill="#D5D9DD" cx="48" cy="51.4" r="38.4"/>
			<circle id="XMLID_375_" opacity="0.1461" fill="#D4D8DC" cx="48" cy="51.4" r="38.4"/>
			<circle id="XMLID_374_" opacity="0.1495" fill="#D3D7DC" cx="48" cy="51.4" r="38.3"/>
			<circle id="XMLID_373_" opacity="0.1529" fill="#D2D6DB" cx="48" cy="51.4" r="38.2"/>
			<circle id="XMLID_372_" opacity="0.1563" fill="#D1D5DA" cx="48" cy="51.4" r="38.1"/>
			<circle id="XMLID_371_" opacity="0.1597" fill="#D0D5D9" cx="48" cy="51.4" r="38"/>
			<circle id="XMLID_370_" opacity="0.1631" fill="#CFD4D8" cx="48" cy="51.3" r="38"/>
			<circle id="XMLID_369_" opacity="0.1665" fill="#CED3D8" cx="48" cy="51.3" r="37.9"/>
			<circle id="XMLID_368_" opacity="0.1699" fill="#CDD2D7" cx="48" cy="51.3" r="37.8"/>
			<circle id="XMLID_367_" opacity="0.1733" fill="#CCD1D6" cx="48" cy="51.3" r="37.7"/>
			<circle id="XMLID_366_" opacity="0.1767" fill="#CBD0D5" cx="48" cy="51.3" r="37.7"/>
			<circle id="XMLID_365_" opacity="0.1801" fill="#CACFD4" cx="48" cy="51.3" r="37.6"/>
			<circle id="XMLID_364_" opacity="0.1835" fill="#C9CED3" cx="48" cy="51.3" r="37.5"/>
			<circle id="XMLID_363_" opacity="0.1869" fill="#C8CDD3" cx="48" cy="51.3" r="37.4"/>
			<circle id="XMLID_362_" opacity="0.1903" fill="#C7CCD2" cx="48" cy="51.3" r="37.4"/>
			<circle id="XMLID_361_" opacity="0.1937" fill="#C6CCD1" cx="48" cy="51.2" r="37.3"/>
			<circle id="XMLID_360_" opacity="0.1971" fill="#C5CBD0" cx="48" cy="51.2" r="37.2"/>
			<circle id="XMLID_359_" opacity="0.2005" fill="#C4CACF" cx="48" cy="51.2" r="37.1"/>
			<circle id="XMLID_358_" opacity="0.2039" fill="#C3C9CF" cx="48" cy="51.2" r="37"/>
			<circle id="XMLID_357_" opacity="0.2073" fill="#C2C8CE" cx="48" cy="51.2" r="37"/>
			<circle id="XMLID_356_" opacity="0.2107" fill="#C1C7CD" cx="48" cy="51.2" r="36.9"/>
			<circle id="XMLID_355_" opacity="0.2141" fill="#C0C6CC" cx="48" cy="51.2" r="36.8"/>
			<circle id="XMLID_354_" opacity="0.2175" fill="#BFC5CB" cx="48" cy="51.2" r="36.7"/>
			<circle id="XMLID_353_" opacity="0.2209" fill="#BEC4CB" cx="48" cy="51.2" r="36.7"/>
			<circle id="XMLID_352_" opacity="0.2243" fill="#BDC3CA" cx="48" cy="51.1" r="36.6"/>
			<circle id="XMLID_351_" opacity="0.2277" fill="#BCC3C9" cx="48" cy="51.1" r="36.5"/>
			<circle id="XMLID_350_" opacity="0.2311" fill="#BBC2C8" cx="48" cy="51.1" r="36.4"/>
			<circle id="XMLID_349_" opacity="0.2345" fill="#BAC1C7" cx="48" cy="51.1" r="36.4"/>
			<circle id="XMLID_348_" opacity="0.2379" fill="#B9C0C7" cx="48" cy="51.1" r="36.3"/>
			<circle id="XMLID_347_" opacity="0.2413" fill="#B8BFC6" cx="48" cy="51.1" r="36.2"/>
			<circle id="XMLID_346_" opacity="0.2447" fill="#B7BEC5" cx="48" cy="51.1" r="36.1"/>
			<circle id="XMLID_345_" opacity="0.2481" fill="#B6BDC4" cx="48" cy="51.1" r="36"/>
			<circle id="XMLID_344_" opacity="0.2515" fill="#B5BCC3" cx="48" cy="51.1" r="36"/>
			<circle id="XMLID_343_" opacity="0.2549" fill="#B4BBC3" cx="48" cy="51" r="35.9"/>
			<circle id="XMLID_342_" opacity="0.2583" fill="#B3BAC2" cx="48" cy="51" r="35.8"/>
			<circle id="XMLID_341_" opacity="0.2617" fill="#B2B9C1" cx="48" cy="51" r="35.7"/>
			<circle id="XMLID_340_" opacity="0.265" fill="#B1B9C0" cx="48" cy="51" r="35.7"/>
			<circle id="XMLID_339_" opacity="0.2684" fill="#B0B8BF" cx="48" cy="51" r="35.6"/>
			<circle id="XMLID_338_" opacity="0.2718" fill="#AFB7BF" cx="48" cy="51" r="35.5"/>
			<circle id="XMLID_337_" opacity="0.2752" fill="#AEB6BE" cx="48" cy="51" r="35.4"/>
			<circle id="XMLID_336_" opacity="0.2786" fill="#ADB5BD" cx="48" cy="51" r="35.4"/>
			<circle id="XMLID_335_" opacity="0.282" fill="#ACB4BC" cx="48" cy="51" r="35.3"/>
			<circle id="XMLID_334_" opacity="0.2854" fill="#ABB3BB" cx="48" cy="50.9" r="35.2"/>
			<circle id="XMLID_333_" opacity="0.2888" fill="#AAB2BB" cx="48" cy="50.9" r="35.1"/>
			<circle id="XMLID_332_" opacity="0.2922" fill="#A9B1BA" cx="48" cy="50.9" r="35"/>
			<circle id="XMLID_331_" opacity="0.2956" fill="#A8B0B9" cx="48" cy="50.9" r="35"/>
			<circle id="XMLID_330_" opacity="0.299" fill="#A7B0B8" cx="48" cy="50.9" r="34.9"/>
			<circle id="XMLID_329_" opacity="0.3024" fill="#A6AFB7" cx="48" cy="50.9" r="34.8"/>
			<circle id="XMLID_328_" opacity="0.3058" fill="#A5AEB6" cx="48" cy="50.9" r="34.7"/>
			<circle id="XMLID_327_" opacity="0.3092" fill="#A4ADB6" cx="48" cy="50.9" r="34.7"/>
			<circle id="XMLID_326_" opacity="0.3126" fill="#A3ACB5" cx="48" cy="50.9" r="34.6"/>
			<circle id="XMLID_325_" opacity="0.316" fill="#A2ABB4" cx="48" cy="50.8" r="34.5"/>
			<circle id="XMLID_324_" opacity="0.3194" fill="#A1AAB3" cx="48" cy="50.8" r="34.4"/>
			<circle id="XMLID_323_" opacity="0.3228" fill="#A0A9B2" cx="48" cy="50.8" r="34.3"/>
			<circle id="XMLID_322_" opacity="0.3262" fill="#9FA8B2" cx="48" cy="50.8" r="34.3"/>
			<circle id="XMLID_321_" opacity="0.3296" fill="#9EA7B1" cx="48" cy="50.8" r="34.2"/>
			<circle id="XMLID_320_" opacity="0.333" fill="#9DA7B0" cx="48" cy="50.8" r="34.1"/>
			<circle id="XMLID_319_" opacity="0.3364" fill="#9CA6AF" cx="48" cy="50.8" r="34"/>
			<circle id="XMLID_318_" opacity="0.3398" fill="#9BA5AE" cx="48" cy="50.8" r="34"/>
			<circle id="XMLID_317_" opacity="0.3432" fill="#9AA4AE" cx="48" cy="50.8" r="33.9"/>
			<circle id="XMLID_316_" opacity="0.3466" fill="#99A3AD" cx="48" cy="50.7" r="33.8"/>
			<circle id="XMLID_315_" opacity="0.35" fill="#98A2AC" cx="48" cy="50.7" r="33.7"/>
			<circle id="XMLID_314_" opacity="0.3534" fill="#97A1AB" cx="48" cy="50.7" r="33.7"/>
			<circle id="XMLID_313_" opacity="0.3568" fill="#96A0AA" cx="48" cy="50.7" r="33.6"/>
			<circle id="XMLID_312_" opacity="0.3602" fill="#959FAA" cx="48" cy="50.7" r="33.5"/>
			<circle id="XMLID_311_" opacity="0.3636" fill="#949EA9" cx="48" cy="50.7" r="33.4"/>
			<circle id="XMLID_310_" opacity="0.367" fill="#939DA8" cx="48" cy="50.7" r="33.3"/>
			<circle id="XMLID_309_" opacity="0.3704" fill="#929DA7" cx="48" cy="50.7" r="33.3"/>
			<circle id="XMLID_308_" opacity="0.3738" fill="#919CA6" cx="48" cy="50.7" r="33.2"/>
			<circle id="XMLID_307_" opacity="0.3772" fill="#909BA6" cx="48" cy="50.6" r="33.1"/>
			<circle id="XMLID_306_" opacity="0.3806" fill="#8F9AA5" cx="48" cy="50.6" r="33"/>
			<circle id="XMLID_305_" opacity="0.384" fill="#8E99A4" cx="48" cy="50.6" r="33"/>
			<circle id="XMLID_304_" opacity="0.3874" fill="#8D98A3" cx="48" cy="50.6" r="32.9"/>
			<circle id="XMLID_303_" opacity="0.3908" fill="#8C97A2" cx="48" cy="50.6" r="32.8"/>
			<circle id="XMLID_302_" opacity="0.3942" fill="#8B96A2" cx="48" cy="50.6" r="32.7"/>
			<circle id="XMLID_301_" opacity="0.3976" fill="#8A95A1" cx="48" cy="50.6" r="32.7"/>
			<circle id="XMLID_300_" opacity="0.401" fill="#8994A0" cx="48" cy="50.6" r="32.6"/>
			<circle id="XMLID_299_" opacity="0.4044" fill="#88949F" cx="48" cy="50.6" r="32.5"/>
			<circle id="XMLID_298_" opacity="0.4078" fill="#87939E" cx="48" cy="50.5" r="32.4"/>
			<circle id="XMLID_297_" opacity="0.4112" fill="#86929D" cx="48" cy="50.5" r="32.3"/>
			<circle id="XMLID_296_" opacity="0.4146" fill="#85919D" cx="48" cy="50.5" r="32.3"/>
			<circle id="XMLID_295_" opacity="0.418" fill="#84909C" cx="48" cy="50.5" r="32.2"/>
			<circle id="XMLID_294_" opacity="0.4214" fill="#838F9B" cx="48" cy="50.5" r="32.1"/>
			<circle id="XMLID_293_" opacity="0.4248" fill="#828E9A" cx="48" cy="50.5" r="32"/>
			<circle id="XMLID_292_" opacity="0.4282" fill="#818D99" cx="48" cy="50.5" r="32"/>
			<circle id="XMLID_291_" opacity="0.4316" fill="#808C99" cx="48" cy="50.5" r="31.9"/>
			<circle id="XMLID_290_" opacity="0.435" fill="#7F8B98" cx="48" cy="50.5" r="31.8"/>
			<circle id="XMLID_289_" opacity="0.4383" fill="#7E8B97" cx="48" cy="50.4" r="31.7"/>
			<circle id="XMLID_288_" opacity="0.4417" fill="#7D8A96" cx="48" cy="50.4" r="31.7"/>
			<circle id="XMLID_287_" opacity="0.4451" fill="#7C8995" cx="48" cy="50.4" r="31.6"/>
			<circle id="XMLID_286_" opacity="0.4485" fill="#7B8895" cx="48" cy="50.4" r="31.5"/>
			<circle id="XMLID_285_" opacity="0.4519" fill="#7A8794" cx="48" cy="50.4" r="31.4"/>
			<circle id="XMLID_284_" opacity="0.4553" fill="#798693" cx="48" cy="50.4" r="31.3"/>
			<circle id="XMLID_283_" opacity="0.4587" fill="#788592" cx="48" cy="50.4" r="31.3"/>
			<circle id="XMLID_282_" opacity="0.4621" fill="#778491" cx="48" cy="50.4" r="31.2"/>
			<circle id="XMLID_281_" opacity="0.4655" fill="#768391" cx="48" cy="50.4" r="31.1"/>
			<circle id="XMLID_280_" opacity="0.4689" fill="#758290" cx="48" cy="50.3" r="31"/>
			<circle id="XMLID_72_" opacity="0.4723" fill="#74818F" cx="48" cy="50.3" r="31"/>
			<circle id="XMLID_71_" opacity="0.4757" fill="#73818E" cx="48" cy="50.3" r="30.9"/>
			<circle id="XMLID_70_" opacity="0.4791" fill="#72808D" cx="48" cy="50.3" r="30.8"/>
			<circle id="XMLID_69_" opacity="0.4825" fill="#717F8D" cx="48" cy="50.3" r="30.7"/>
			<circle id="XMLID_68_" opacity="0.4859" fill="#707E8C" cx="48" cy="50.3" r="30.7"/>
			<circle id="XMLID_67_" opacity="0.4893" fill="#6F7D8B" cx="48" cy="50.3" r="30.6"/>
			<circle id="XMLID_66_" opacity="0.4927" fill="#6E7C8A" cx="48" cy="50.3" r="30.5"/>
			<circle id="XMLID_65_" opacity="0.4961" fill="#6D7B89" cx="48" cy="50.3" r="30.4"/>
			<circle id="XMLID_64_" opacity="0.4995" fill="#6C7A89" cx="48" cy="50.2" r="30.3"/>
			<circle id="XMLID_63_" opacity="0.5029" fill="#6B7988" cx="48" cy="50.2" r="30.3"/>
			<circle id="XMLID_62_" opacity="0.5063" fill="#6A7887" cx="48" cy="50.2" r="30.2"/>
			<circle id="XMLID_61_" opacity="0.5097" fill="#697886" cx="48" cy="50.2" r="30.1"/>
			<circle id="XMLID_60_" opacity="0.5131" fill="#687785" cx="48" cy="50.2" r="30"/>
			<circle id="XMLID_59_" opacity="0.5165" fill="#677685" cx="48" cy="50.2" r="30"/>
			<circle id="XMLID_58_" opacity="0.5199" fill="#667584" cx="48" cy="50.2" r="29.9"/>
			<circle id="XMLID_57_" opacity="0.5233" fill="#657483" cx="48" cy="50.2" r="29.8"/>
			<circle id="XMLID_56_" opacity="0.5267" fill="#647382" cx="48" cy="50.2" r="29.7"/>
			<circle id="XMLID_55_" opacity="0.5301" fill="#637281" cx="48" cy="50.1" r="29.7"/>
			<circle id="XMLID_54_" opacity="0.5335" fill="#627180" cx="48" cy="50.1" r="29.6"/>
			<circle id="XMLID_53_" opacity="0.5369" fill="#617080" cx="48" cy="50.1" r="29.5"/>
			<circle id="XMLID_52_" opacity="0.5403" fill="#606F7F" cx="48" cy="50.1" r="29.4"/>
			<circle id="XMLID_51_" opacity="0.5437" fill="#5F6F7E" cx="48" cy="50.1" r="29.3"/>
			<circle id="XMLID_50_" opacity="0.5471" fill="#5E6E7D" cx="48" cy="50.1" r="29.3"/>
			<circle id="XMLID_49_" opacity="0.5505" fill="#5D6D7C" cx="48" cy="50.1" r="29.2"/>
			<circle id="XMLID_48_" opacity="0.5539" fill="#5C6C7C" cx="48" cy="50.1" r="29.1"/>
			<circle id="XMLID_47_" opacity="0.5573" fill="#5B6B7B" cx="48" cy="50.1" r="29"/>
			<circle id="XMLID_46_" opacity="0.5607" fill="#5A6A7A" cx="48" cy="50" r="29"/>
			<circle id="XMLID_45_" opacity="0.5641" fill="#596979" cx="48" cy="50" r="28.9"/>
			<circle id="XMLID_44_" opacity="0.5675" fill="#586878" cx="48" cy="50" r="28.8"/>
			<circle id="XMLID_43_" opacity="0.5709" fill="#576778" cx="48" cy="50" r="28.7"/>
			<circle id="XMLID_42_" opacity="0.5743" fill="#566677" cx="48" cy="50" r="28.7"/>
			<circle id="XMLID_41_" opacity="0.5777" fill="#556676" cx="48" cy="50" r="28.6"/>
			<circle id="XMLID_40_" opacity="0.5811" fill="#546575" cx="48" cy="50" r="28.5"/>
			<circle id="XMLID_39_" opacity="0.5845" fill="#536474" cx="48" cy="50" r="28.4"/>
			<circle id="XMLID_38_" opacity="0.5879" fill="#526374" cx="48" cy="50" r="28.3"/>
			<circle id="XMLID_37_" opacity="0.5913" fill="#516273" cx="48" cy="49.9" r="28.3"/>
			<circle id="XMLID_36_" opacity="0.5947" fill="#506172" cx="48" cy="49.9" r="28.2"/>
			<circle id="XMLID_35_" opacity="0.5981" fill="#4F6071" cx="48" cy="49.9" r="28.1"/>
			<circle id="XMLID_34_" opacity="0.6015" fill="#4E5F70" cx="48" cy="49.9" r="28"/>
			<circle id="XMLID_33_" opacity="0.6049" fill="#4D5E70" cx="48" cy="49.9" r="28"/>
			<circle id="XMLID_32_" opacity="0.6083" fill="#4C5D6F" cx="48" cy="49.9" r="27.9"/>
			<circle id="XMLID_31_" opacity="0.6117" fill="#4B5C6E" cx="48" cy="49.9" r="27.8"/>
			<circle id="XMLID_30_" opacity="0.615" fill="#4A5C6D" cx="48" cy="49.9" r="27.7"/>
			<circle id="XMLID_29_" opacity="0.6184" fill="#495B6C" cx="48" cy="49.9" r="27.7"/>
			<circle id="XMLID_28_" opacity="0.6218" fill="#485A6C" cx="48" cy="49.8" r="27.6"/>
			<circle id="XMLID_27_" opacity="0.6252" fill="#47596B" cx="48" cy="49.8" r="27.5"/>
			<circle id="XMLID_26_" opacity="0.6286" fill="#46586A" cx="48" cy="49.8" r="27.4"/>
			<circle id="XMLID_25_" opacity="0.632" fill="#455769" cx="48" cy="49.8" r="27.3"/>
			<circle id="XMLID_24_" opacity="0.6354" fill="#445668" cx="48" cy="49.8" r="27.3"/>
			<circle id="XMLID_23_" opacity="0.6388" fill="#435568" cx="48" cy="49.8" r="27.2"/>
			<circle id="XMLID_22_" opacity="0.6422" fill="#425467" cx="48" cy="49.8" r="27.1"/>
			<circle id="XMLID_21_" opacity="0.6456" fill="#415366" cx="48" cy="49.8" r="27"/>
			<circle id="XMLID_20_" opacity="0.649" fill="#405365" cx="48" cy="49.8" r="27"/>
			<circle id="XMLID_19_" opacity="0.6524" fill="#3F5264" cx="48" cy="49.7" r="26.9"/>
			<circle id="XMLID_18_" opacity="0.6558" fill="#3E5163" cx="48" cy="49.7" r="26.8"/>
			<circle id="XMLID_17_" opacity="0.6592" fill="#3D5063" cx="48" cy="49.7" r="26.7"/>
			<circle id="XMLID_16_" opacity="0.6626" fill="#3C4F62" cx="48" cy="49.7" r="26.7"/>
			<circle id="XMLID_15_" opacity="0.666" fill="#3B4E61" cx="48" cy="49.7" r="26.6"/>
			<circle id="XMLID_14_" opacity="0.6694" fill="#3A4D60" cx="48" cy="49.7" r="26.5"/>
			<circle id="XMLID_13_" opacity="0.6728" fill="#394C5F" cx="48" cy="49.7" r="26.4"/>
			<circle id="XMLID_12_" opacity="0.6762" fill="#384B5F" cx="48" cy="49.7" r="26.3"/>
			<circle id="XMLID_11_" opacity="0.6796" fill="#374A5E" cx="48" cy="49.7" r="26.3"/>
			<circle id="XMLID_10_" opacity="0.683" fill="#364A5D" cx="48" cy="49.6" r="26.2"/>
			<circle id="XMLID_9_" opacity="0.6864" fill="#35495C" cx="48" cy="49.6" r="26.1"/>
			<circle id="XMLID_8_" opacity="0.6898" fill="#34485B" cx="48" cy="49.6" r="26"/>
			<circle id="XMLID_7_" opacity="0.6932" fill="#33475B" cx="48" cy="49.6" r="26"/>
			<circle id="XMLID_6_" opacity="0.6966" fill="#32465A" cx="48" cy="49.6" r="25.9"/>
			<circle id="XMLID_4_" opacity="0.7" fill="#314559" cx="48" cy="49.6" r="25.8"/>
		</g>
		
			<linearGradient id="XMLID_74_" gradientUnits="userSpaceOnUse" x1="6682.1646" y1="-383.769" x2="6754.2739" y2="-383.769" gradientTransform="matrix(0 1 -1 0 -334.2423 -6674.2422)">
			<stop  offset="0" style="stop-color:#FFFFFF"/>
			<stop  offset="0.2837" style="stop-color:#FAFBFC"/>
			<stop  offset="0.5978" style="stop-color:#EDEFF2"/>
			<stop  offset="0.9252" style="stop-color:#D7DBE2"/>
			<stop  offset="1" style="stop-color:#D1D5DE"/>
		</linearGradient>
		<circle id="XMLID_1443_" fill="url(#XMLID_74_)" cx="49.5" cy="44" r="36.1"/>
	</g>
	<g id="XMLID_2120_">
		<g id="XMLID_2121_">
			<g id="XMLID_2157_">
				<circle id="XMLID_2118_" fill="#FFFFFF" cx="49.8" cy="43.6" r="17.7"/>
				<path id="XMLID_2158_" fill="#003887" d="M49.8,61.7c-10,0-18.2-8.1-18.2-18.2c0-10,8.1-18.2,18.2-18.2c10,0,18.2,8.1,18.2,18.2
					C68,53.6,59.9,61.7,49.8,61.7z M49.8,26.3c-9.5,0-17.3,7.8-17.3,17.3c0,9.5,7.8,17.3,17.3,17.3c9.5,0,17.3-7.8,17.3-17.3
					C67.1,34,59.4,26.3,49.8,26.3z"/>
			</g>
			<g id="XMLID_2152_">
				<path id="XMLID_2115_" fill="#FFCE3B" d="M44,32.1c-1.3,0.4-2.3,1.6-2.3,3.4v4.4l15.4,0v-4.4c0-2.7-2.2-4.8-4.8-4.8h-8.7
					c0,1.6,1.3,2.9,2.9,2.9h3.2L44,32.1z"/>
				<path id="XMLID_2153_" fill="#003887" d="M57.1,40.4c0,0-15.4,0-15.4,0c-0.2,0-0.4-0.2-0.4-0.4v-4.4c0-1.7,0.8-3,2.2-3.6
					c-0.1-0.4-0.2-0.8-0.2-1.2c0-0.2,0.2-0.4,0.4-0.4h8.7c2.9,0,5.3,2.4,5.3,5.3V40c0,0.1,0,0.2-0.1,0.3
					C57.3,40.4,57.2,40.4,57.1,40.4z M42.1,39.5l14.6,0v-4c0-2.4-2-4.4-4.4-4.4H44c0.2,1.1,1.2,2,2.4,2h3.2c0.2,0,0.4,0.2,0.4,0.4
					c0,0.2-0.2,0.4-0.4,0.4h-3.2c-1.1,0-2.1-0.5-2.7-1.4c-1.1,0.5-1.7,1.5-1.7,2.9V39.5z"/>
			</g>
			<g id="XMLID_2147_">
				<path id="XMLID_2112_" fill="#5D9AF0" d="M52,52.5h-5.3c-3.1,0.1-5.5,1.5-7.1,3.9l-0.4,1.3c3,2.2,6.7,3.6,10.7,3.6
					c3.8,0,7.3-1.2,10.2-3.3C58.7,54.9,55.6,52.7,52,52.5z"/>
				<path id="XMLID_2148_" fill="#003887" d="M49.8,61.7c-4,0-7.8-1.3-10.9-3.7c-0.2-0.1-0.2-0.3-0.2-0.5l0.4-1.3c0,0,0-0.1,0-0.1
					c1.7-2.6,4.3-4,7.5-4.1l5.3,0c0,0,0,0,0,0c3.7,0.1,7,2.4,8.5,5.8c0.1,0.2,0,0.4-0.1,0.5C57.2,60.6,53.6,61.7,49.8,61.7z
					 M39.7,57.6c3,2.2,6.5,3.3,10.2,3.3c3.5,0,6.8-1,9.7-3c-1.4-2.9-4.3-4.8-7.6-5h-5.3c-2.9,0.1-5.2,1.4-6.7,3.7L39.7,57.6z"/>
			</g>
			<g id="XMLID_2144_">
				<path id="XMLID_2109_" fill="#FFFFFF" d="M46.7,49.1v3.1c0,1.5,1.2,2.6,2.6,2.6c1.5,0,2.6-1.2,2.6-2.6v-3.1L46.7,49.1z"/>
				<path id="XMLID_2108_" fill="#003887" d="M49.3,55.3c-1.7,0-3.1-1.4-3.1-3.1v-3.1c0-0.2,0.2-0.4,0.4-0.4s0.4,0.2,0.4,0.4v3.1
					c0,1.2,1,2.2,2.2,2.2c1.2,0,2.2-1,2.2-2.2v-3.1c0-0.2,0.2-0.4,0.4-0.4c0.2,0,0.4,0.2,0.4,0.4v3.1C52.4,53.9,51,55.3,49.3,55.3z"
					/>
			</g>
			<g id="XMLID_2139_">
				<path id="XMLID_2107_" fill="#FFFFFF" d="M43.5,39.1v-0.7c0-2.7,2.2-4.9,4.9-4.9h2c2.7,0,4.9,2.2,4.9,4.9v0.7
					c1.3,0,2.4,1.1,2.4,2.4c0,1.3-1.1,2.4-2.4,2.4v0.2c0,2.9-2.4,5.3-5.3,5.3h-1.1c-2.9,0-5.3-2.4-5.3-5.3V44
					c-1.4,0-2.4-1.1-2.4-2.4C41,40.2,42.1,39.1,43.5,39.1z"/>
				<path id="XMLID_2140_" fill="#003887" d="M49.9,50h-1.1c-3.1,0-5.6-2.5-5.8-5.6c-1.4-0.2-2.5-1.4-2.5-2.9c0-1.4,1.1-2.6,2.4-2.9
					v-0.2c0-2.9,2.4-5.3,5.3-5.3h2c2.9,0,5.3,2.4,5.3,5.3v0.3c1.4,0.2,2.4,1.4,2.4,2.8c0,1.4-1.1,2.6-2.4,2.8
					C55.6,47.5,53,50,49.9,50z M48.4,34c-2.4,0-4.4,2-4.4,4.4v0.7c0,0.2-0.2,0.4-0.4,0.4c-1.1,0-2,0.9-2,2c0,1.1,0.9,2,2,2
					c0.2,0,0.4,0.2,0.4,0.4v0.2c0,2.7,2.2,4.9,4.9,4.9h1.1c2.7,0,4.9-2.2,4.9-4.9V44c0-0.2,0.2-0.4,0.4-0.4c1.1,0,2-0.9,2-2
					c0-1.1-0.9-2-2-2c-0.2,0-0.4-0.2-0.4-0.4v-0.7c0-2.4-2-4.4-4.4-4.4H48.4z"/>
			</g>
			<g id="XMLID_2137_">
				<path id="XMLID_2104_" fill="#003887" d="M49.3,46.5c-0.9,0-1.7-0.3-2.3-1c-0.2-0.2-0.2-0.4,0-0.6c0.2-0.2,0.4-0.2,0.6,0
					c0.5,0.5,1.1,0.7,1.7,0.7c0.7,0,1.3-0.3,1.7-0.7c0.2-0.2,0.4-0.2,0.6,0c0.2,0.2,0.2,0.4,0,0.6C51.1,46.2,50.2,46.5,49.3,46.5z"
					/>
			</g>
			<g id="XMLID_2132_">
				<path id="XMLID_2103_" fill="#FFCE3B" d="M50,52.9l2.2,5.2c0,0,0.1,0.1,0.1,0.1l5.6,0.5c0.1,0,0.2,0.2,0.1,0.3l-4.3,3.7
					c0,0-0.1,0.1,0,0.1l1.2,5.5c0,0.1-0.1,0.2-0.2,0.2l-4.8-2.9c0,0-0.1,0-0.1,0l-4.9,2.9c-0.1,0.1-0.2,0-0.2-0.2l1.3-5.5
					c0-0.1,0-0.1,0-0.1l-4.2-3.7c-0.1-0.1,0-0.2,0.1-0.3l5.6-0.5c0.1,0,0.1,0,0.1-0.1l2.3-5.2C49.8,52.8,49.9,52.8,50,52.9L50,52.9z
					"/>
				<path id="XMLID_2133_" fill="#003887" d="M54.8,68.9c-0.1,0-0.2,0-0.3-0.1L49.8,66l-4.7,2.8c-0.2,0.1-0.5,0.1-0.6,0
					c-0.2-0.1-0.3-0.4-0.2-0.6l1.2-5.3l-4.1-3.6c-0.2-0.2-0.2-0.4-0.2-0.6c0.1-0.2,0.3-0.4,0.5-0.4l5.5-0.5l2.2-5
					c0.1-0.2,0.3-0.3,0.5-0.3c0.2,0,0.4,0.1,0.5,0.4c0,0,2.1,5,2.1,5l5.4,0.5c0.2,0,0.4,0.2,0.5,0.4c0.1,0.2,0,0.5-0.2,0.6l-4.1,3.6
					l1.2,5.3c0.1,0.2,0,0.5-0.2,0.6C55,68.9,54.9,68.9,54.8,68.9z M49.8,65.1c0.1,0,0.2,0,0.3,0.1l4.3,2.5l-1.1-4.8
					c0-0.2,0-0.4,0.2-0.6l3.7-3.3l-4.9-0.5c-0.2,0-0.4-0.2-0.5-0.4l-1.9-4.6l-2,4.5c-0.1,0.2-0.3,0.3-0.5,0.3L42.4,59l3.7,3.3
					c0.2,0.1,0.2,0.4,0.2,0.6l-1.1,4.8l4.3-2.5C49.6,65.1,49.7,65.1,49.8,65.1z"/>
			</g>
			<g id="XMLID_2127_">
				<path id="XMLID_2100_" fill="#FFFFFF" d="M38.7,50.8l1.8,4.2c0,0,0.1,0.1,0.1,0.1l4.6,0.4c0.1,0,0.1,0.1,0.1,0.2l-3.5,3
					c0,0,0,0.1,0,0.1l1,4.5c0,0.1-0.1,0.2-0.2,0.1l-3.9-2.4c0,0-0.1,0-0.1,0l-4,2.3c-0.1,0.1-0.2,0-0.2-0.1l1-4.5c0,0,0-0.1,0-0.1
					l-3.4-3c-0.1-0.1,0-0.2,0.1-0.2l4.6-0.4c0,0,0.1,0,0.1-0.1l1.8-4.2C38.5,50.7,38.6,50.7,38.7,50.8z"/>
				<path id="XMLID_2128_" fill="#003887" d="M42.6,64c-0.1,0-0.2,0-0.3-0.1l-3.8-2.3l-3.8,2.2c-0.2,0.1-0.4,0.1-0.6,0
					c-0.2-0.1-0.3-0.4-0.2-0.6l1-4.3l-3.3-2.9c-0.2-0.1-0.2-0.4-0.2-0.6c0.1-0.2,0.3-0.4,0.5-0.4l4.4-0.4l1.8-4
					c0.1-0.2,0.3-0.3,0.5-0.3c0.2,0,0.4,0.1,0.5,0.3c0,0,1.7,4.1,1.7,4.1l4.4,0.4c0.2,0,0.4,0.2,0.5,0.4c0.1,0.2,0,0.4-0.2,0.6
					L42.2,59l1,4.3c0,0.2,0,0.4-0.2,0.6C42.8,63.9,42.7,64,42.6,64z M38.5,60.7c0.1,0,0.2,0,0.3,0.1l3.3,2L41.3,59
					c0-0.2,0-0.4,0.2-0.5l2.9-2.5l-3.8-0.4c-0.2,0-0.4-0.1-0.5-0.3l-1.5-3.5L37,55.2c-0.1,0.2-0.3,0.3-0.5,0.3l-3.8,0.3l2.9,2.6
					c0.2,0.1,0.2,0.3,0.2,0.5l-0.9,3.8l3.3-2C38.3,60.7,38.4,60.7,38.5,60.7z"/>
			</g>
			<g id="XMLID_2122_">
				<path id="XMLID_2097_" fill="#FFFFFF" d="M61.1,51.5l1.7,3.9c0,0,0,0.1,0.1,0.1l4.2,0.4c0.1,0,0.1,0.1,0.1,0.2l-3.2,2.8
					c0,0,0,0.1,0,0.1l0.9,4.1c0,0.1-0.1,0.2-0.2,0.1L61,61c0,0-0.1,0-0.1,0l-3.6,2.1c-0.1,0-0.2,0-0.2-0.1l0.9-4.1c0,0,0-0.1,0-0.1
					L54.8,56c-0.1-0.1,0-0.2,0.1-0.2l4.2-0.4c0,0,0.1,0,0.1-0.1l1.7-3.9C60.9,51.4,61,51.4,61.1,51.5z"/>
				<path id="XMLID_2123_" fill="#003887" d="M64.7,63.6c-0.1,0-0.2,0-0.3-0.1l-3.5-2.1l-3.5,2c-0.2,0.1-0.4,0.1-0.6,0
					c-0.2-0.1-0.3-0.3-0.2-0.6l0.9-3.9l-3-2.7c-0.2-0.1-0.2-0.4-0.2-0.6c0.1-0.2,0.3-0.4,0.5-0.4l4-0.4l1.6-3.7
					c0.1-0.2,0.3-0.3,0.5-0.3c0.2,0,0.4,0.1,0.5,0.3L63,55l4,0.4c0.2,0,0.4,0.2,0.5,0.4c0.1,0.2,0,0.4-0.2,0.6l-3,2.6l0.9,3.9
					c0,0.2,0,0.4-0.2,0.6C64.9,63.6,64.8,63.6,64.7,63.6z M60.9,60.5c0.1,0,0.2,0,0.3,0.1l3,1.8L63.4,59c0-0.2,0-0.4,0.2-0.5
					l2.6-2.3l-3.4-0.3c-0.2,0-0.4-0.1-0.4-0.3L61,52.4l-1.4,3.2c-0.1,0.2-0.3,0.3-0.4,0.3l-3.4,0.3l2.6,2.3c0.1,0.1,0.2,0.3,0.2,0.5
					l-0.8,3.4l3-1.8C60.7,60.6,60.8,60.5,60.9,60.5z"/>
			</g>
		</g>
	</g>
</g>
</svg>
